%TF.GenerationSoftware,KiCad,Pcbnew,(6.0.4-0)*%
%TF.CreationDate,2023-12-10T22:35:43+01:00*%
%TF.ProjectId,pcmcia-sram,70636d63-6961-42d7-9372-616d2e6b6963,rev?*%
%TF.SameCoordinates,Original*%
%TF.FileFunction,Soldermask,Top*%
%TF.FilePolarity,Negative*%
%FSLAX46Y46*%
G04 Gerber Fmt 4.6, Leading zero omitted, Abs format (unit mm)*
G04 Created by KiCad (PCBNEW (6.0.4-0)) date 2023-12-10 22:35:43*
%MOMM*%
%LPD*%
G01*
G04 APERTURE LIST*
G04 Aperture macros list*
%AMRoundRect*
0 Rectangle with rounded corners*
0 $1 Rounding radius*
0 $2 $3 $4 $5 $6 $7 $8 $9 X,Y pos of 4 corners*
0 Add a 4 corners polygon primitive as box body*
4,1,4,$2,$3,$4,$5,$6,$7,$8,$9,$2,$3,0*
0 Add four circle primitives for the rounded corners*
1,1,$1+$1,$2,$3*
1,1,$1+$1,$4,$5*
1,1,$1+$1,$6,$7*
1,1,$1+$1,$8,$9*
0 Add four rect primitives between the rounded corners*
20,1,$1+$1,$2,$3,$4,$5,0*
20,1,$1+$1,$4,$5,$6,$7,0*
20,1,$1+$1,$6,$7,$8,$9,0*
20,1,$1+$1,$8,$9,$2,$3,0*%
G04 Aperture macros list end*
%ADD10C,0.000150*%
%ADD11RoundRect,0.250000X0.350000X0.450000X-0.350000X0.450000X-0.350000X-0.450000X0.350000X-0.450000X0*%
%ADD12RoundRect,0.102000X-2.550000X1.250000X-2.550000X-1.250000X2.550000X-1.250000X2.550000X1.250000X0*%
%ADD13C,18.004000*%
%ADD14RoundRect,0.137500X0.625000X0.137500X-0.625000X0.137500X-0.625000X-0.137500X0.625000X-0.137500X0*%
%ADD15RoundRect,0.250000X0.650000X-0.412500X0.650000X0.412500X-0.650000X0.412500X-0.650000X-0.412500X0*%
%ADD16RoundRect,0.250000X-0.650000X0.412500X-0.650000X-0.412500X0.650000X-0.412500X0.650000X0.412500X0*%
%ADD17RoundRect,0.150000X0.587500X0.150000X-0.587500X0.150000X-0.587500X-0.150000X0.587500X-0.150000X0*%
%ADD18C,1.200000*%
%ADD19R,2.400000X0.740000*%
%ADD20RoundRect,0.250000X0.475000X-0.337500X0.475000X0.337500X-0.475000X0.337500X-0.475000X-0.337500X0*%
%ADD21RoundRect,0.250000X-0.475000X0.337500X-0.475000X-0.337500X0.475000X-0.337500X0.475000X0.337500X0*%
G04 APERTURE END LIST*
D10*
G36*
X185798772Y-79306496D02*
G01*
X185716090Y-79306496D01*
X185716090Y-79243039D01*
X185798772Y-79243039D01*
X185798772Y-79306496D01*
G37*
X185798772Y-79306496D02*
X185716090Y-79306496D01*
X185716090Y-79243039D01*
X185798772Y-79243039D01*
X185798772Y-79306496D01*
G36*
X187370641Y-78994992D02*
G01*
X187246618Y-78994992D01*
X187246618Y-79119016D01*
X187122594Y-79119016D01*
X187122594Y-79243039D01*
X186626500Y-79243039D01*
X186626500Y-79119016D01*
X186502477Y-79119016D01*
X186502477Y-78994992D01*
X186378454Y-78994992D01*
X186378454Y-78870969D01*
X186626500Y-78870969D01*
X186750524Y-78870969D01*
X186750524Y-78994992D01*
X186998571Y-78994992D01*
X186998571Y-78870969D01*
X187122594Y-78870969D01*
X187122594Y-78250852D01*
X186626500Y-78250852D01*
X186626500Y-78870969D01*
X186378454Y-78870969D01*
X186378454Y-78746946D01*
X186254430Y-78746946D01*
X186254430Y-78870969D01*
X186130407Y-78870969D01*
X186130407Y-78994992D01*
X186006383Y-78994992D01*
X186006383Y-79119016D01*
X185882360Y-79119016D01*
X185882360Y-79243039D01*
X185798772Y-79243039D01*
X185798772Y-79223814D01*
X185716090Y-79223814D01*
X185716090Y-79243039D01*
X185634313Y-79243039D01*
X185634313Y-78994992D01*
X185758336Y-78994992D01*
X185758336Y-78870969D01*
X185882360Y-78870969D01*
X185882360Y-78746946D01*
X186006383Y-78746946D01*
X186006383Y-78622922D01*
X186130407Y-78622922D01*
X186130407Y-78498899D01*
X186254430Y-78498899D01*
X186254430Y-78374875D01*
X186378454Y-78374875D01*
X186378454Y-78250852D01*
X185634313Y-78250852D01*
X185634313Y-78002805D01*
X187370641Y-78002805D01*
X187370641Y-78994992D01*
G37*
X187370641Y-78994992D02*
X187246618Y-78994992D01*
X187246618Y-79119016D01*
X187122594Y-79119016D01*
X187122594Y-79243039D01*
X186626500Y-79243039D01*
X186626500Y-79119016D01*
X186502477Y-79119016D01*
X186502477Y-78994992D01*
X186378454Y-78994992D01*
X186378454Y-78870969D01*
X186626500Y-78870969D01*
X186750524Y-78870969D01*
X186750524Y-78994992D01*
X186998571Y-78994992D01*
X186998571Y-78870969D01*
X187122594Y-78870969D01*
X187122594Y-78250852D01*
X186626500Y-78250852D01*
X186626500Y-78870969D01*
X186378454Y-78870969D01*
X186378454Y-78746946D01*
X186254430Y-78746946D01*
X186254430Y-78870969D01*
X186130407Y-78870969D01*
X186130407Y-78994992D01*
X186006383Y-78994992D01*
X186006383Y-79119016D01*
X185882360Y-79119016D01*
X185882360Y-79243039D01*
X185798772Y-79243039D01*
X185798772Y-79223814D01*
X185716090Y-79223814D01*
X185716090Y-79243039D01*
X185634313Y-79243039D01*
X185634313Y-78994992D01*
X185758336Y-78994992D01*
X185758336Y-78870969D01*
X185882360Y-78870969D01*
X185882360Y-78746946D01*
X186006383Y-78746946D01*
X186006383Y-78622922D01*
X186130407Y-78622922D01*
X186130407Y-78498899D01*
X186254430Y-78498899D01*
X186254430Y-78374875D01*
X186378454Y-78374875D01*
X186378454Y-78250852D01*
X185634313Y-78250852D01*
X185634313Y-78002805D01*
X187370641Y-78002805D01*
X187370641Y-78994992D01*
G36*
X187370641Y-80731321D02*
G01*
X187122594Y-80731321D01*
X187122594Y-79739133D01*
X186626500Y-79739133D01*
X186626500Y-80483274D01*
X186378454Y-80483274D01*
X186378454Y-79739133D01*
X185882360Y-79739133D01*
X185882360Y-80731321D01*
X185634313Y-80731321D01*
X185634313Y-79491086D01*
X187370641Y-79491086D01*
X187370641Y-80731321D01*
G37*
X187370641Y-80731321D02*
X187122594Y-80731321D01*
X187122594Y-79739133D01*
X186626500Y-79739133D01*
X186626500Y-80483274D01*
X186378454Y-80483274D01*
X186378454Y-79739133D01*
X185882360Y-79739133D01*
X185882360Y-80731321D01*
X185634313Y-80731321D01*
X185634313Y-79491086D01*
X187370641Y-79491086D01*
X187370641Y-80731321D01*
G36*
X187370641Y-82219602D02*
G01*
X187122594Y-82219602D01*
X187122594Y-81723508D01*
X185634313Y-81723508D01*
X185634313Y-81475461D01*
X187122594Y-81475461D01*
X187122594Y-80979367D01*
X187370641Y-80979367D01*
X187370641Y-82219602D01*
G37*
X187370641Y-82219602D02*
X187122594Y-82219602D01*
X187122594Y-81723508D01*
X185634313Y-81723508D01*
X185634313Y-81475461D01*
X187122594Y-81475461D01*
X187122594Y-80979367D01*
X187370641Y-80979367D01*
X187370641Y-82219602D01*
G36*
X187370641Y-83459836D02*
G01*
X187246618Y-83459836D01*
X187246618Y-83583860D01*
X187122594Y-83583860D01*
X187122594Y-83707882D01*
X186626500Y-83707882D01*
X186626500Y-83583860D01*
X186502477Y-83583860D01*
X186502477Y-83459836D01*
X186378454Y-83459836D01*
X186378454Y-83335813D01*
X186626500Y-83335813D01*
X186750524Y-83335813D01*
X186750524Y-83459836D01*
X186998571Y-83459836D01*
X186998571Y-83335813D01*
X187122594Y-83335813D01*
X187122594Y-82715696D01*
X186626500Y-82715696D01*
X186626500Y-83335813D01*
X186378454Y-83335813D01*
X186378454Y-83211789D01*
X186254430Y-83211789D01*
X186254430Y-83335813D01*
X186130407Y-83335813D01*
X186130407Y-83459836D01*
X186006383Y-83459836D01*
X186006383Y-83583860D01*
X185882360Y-83583860D01*
X185882360Y-83707882D01*
X185634313Y-83707882D01*
X185634313Y-83459836D01*
X185758336Y-83459836D01*
X185758336Y-83335813D01*
X185882360Y-83335813D01*
X185882360Y-83211789D01*
X186006383Y-83211789D01*
X186006383Y-83087766D01*
X186130407Y-83087766D01*
X186130407Y-82963742D01*
X186254430Y-82963742D01*
X186254430Y-82839719D01*
X186378454Y-82839719D01*
X186378454Y-82715696D01*
X185634313Y-82715696D01*
X185634313Y-82467649D01*
X187370641Y-82467649D01*
X187370641Y-83459836D01*
G37*
X187370641Y-83459836D02*
X187246618Y-83459836D01*
X187246618Y-83583860D01*
X187122594Y-83583860D01*
X187122594Y-83707882D01*
X186626500Y-83707882D01*
X186626500Y-83583860D01*
X186502477Y-83583860D01*
X186502477Y-83459836D01*
X186378454Y-83459836D01*
X186378454Y-83335813D01*
X186626500Y-83335813D01*
X186750524Y-83335813D01*
X186750524Y-83459836D01*
X186998571Y-83459836D01*
X186998571Y-83335813D01*
X187122594Y-83335813D01*
X187122594Y-82715696D01*
X186626500Y-82715696D01*
X186626500Y-83335813D01*
X186378454Y-83335813D01*
X186378454Y-83211789D01*
X186254430Y-83211789D01*
X186254430Y-83335813D01*
X186130407Y-83335813D01*
X186130407Y-83459836D01*
X186006383Y-83459836D01*
X186006383Y-83583860D01*
X185882360Y-83583860D01*
X185882360Y-83707882D01*
X185634313Y-83707882D01*
X185634313Y-83459836D01*
X185758336Y-83459836D01*
X185758336Y-83335813D01*
X185882360Y-83335813D01*
X185882360Y-83211789D01*
X186006383Y-83211789D01*
X186006383Y-83087766D01*
X186130407Y-83087766D01*
X186130407Y-82963742D01*
X186254430Y-82963742D01*
X186254430Y-82839719D01*
X186378454Y-82839719D01*
X186378454Y-82715696D01*
X185634313Y-82715696D01*
X185634313Y-82467649D01*
X187370641Y-82467649D01*
X187370641Y-83459836D01*
G36*
X187122594Y-84079953D02*
G01*
X187246618Y-84079953D01*
X187246618Y-84203977D01*
X187370641Y-84203977D01*
X187370641Y-84948118D01*
X187246618Y-84948118D01*
X187246618Y-85072141D01*
X187122594Y-85072141D01*
X187122594Y-85196164D01*
X185882360Y-85196164D01*
X185882360Y-85072141D01*
X185758336Y-85072141D01*
X185758336Y-84948118D01*
X185634313Y-84948118D01*
X185634313Y-84824094D01*
X185882360Y-84824094D01*
X186006383Y-84824094D01*
X186006383Y-84948118D01*
X186998571Y-84948118D01*
X186998571Y-84824094D01*
X187122594Y-84824094D01*
X187122594Y-84328000D01*
X186998571Y-84328000D01*
X186998571Y-84203977D01*
X186006383Y-84203977D01*
X186006383Y-84328000D01*
X185882360Y-84328000D01*
X185882360Y-84824094D01*
X185634313Y-84824094D01*
X185634313Y-84203977D01*
X185758336Y-84203977D01*
X185758336Y-84079953D01*
X185882360Y-84079953D01*
X185882360Y-83955930D01*
X187122594Y-83955930D01*
X187122594Y-84079953D01*
G37*
X187122594Y-84079953D02*
X187246618Y-84079953D01*
X187246618Y-84203977D01*
X187370641Y-84203977D01*
X187370641Y-84948118D01*
X187246618Y-84948118D01*
X187246618Y-85072141D01*
X187122594Y-85072141D01*
X187122594Y-85196164D01*
X185882360Y-85196164D01*
X185882360Y-85072141D01*
X185758336Y-85072141D01*
X185758336Y-84948118D01*
X185634313Y-84948118D01*
X185634313Y-84824094D01*
X185882360Y-84824094D01*
X186006383Y-84824094D01*
X186006383Y-84948118D01*
X186998571Y-84948118D01*
X186998571Y-84824094D01*
X187122594Y-84824094D01*
X187122594Y-84328000D01*
X186998571Y-84328000D01*
X186998571Y-84203977D01*
X186006383Y-84203977D01*
X186006383Y-84328000D01*
X185882360Y-84328000D01*
X185882360Y-84824094D01*
X185634313Y-84824094D01*
X185634313Y-84203977D01*
X185758336Y-84203977D01*
X185758336Y-84079953D01*
X185882360Y-84079953D01*
X185882360Y-83955930D01*
X187122594Y-83955930D01*
X187122594Y-84079953D01*
G36*
X185882360Y-86064328D02*
G01*
X185634313Y-86064328D01*
X185634313Y-85816282D01*
X185882360Y-85816282D01*
X185882360Y-86064328D01*
G37*
X185882360Y-86064328D02*
X185634313Y-86064328D01*
X185634313Y-85816282D01*
X185882360Y-85816282D01*
X185882360Y-86064328D01*
G36*
X187370641Y-88172727D02*
G01*
X187122594Y-88172727D01*
X187122594Y-87180539D01*
X186626500Y-87180539D01*
X186626500Y-87924680D01*
X186378454Y-87924680D01*
X186378454Y-87180539D01*
X185882360Y-87180539D01*
X185882360Y-88172727D01*
X185634313Y-88172727D01*
X185634313Y-86932493D01*
X187370641Y-86932493D01*
X187370641Y-88172727D01*
G37*
X187370641Y-88172727D02*
X187122594Y-88172727D01*
X187122594Y-87180539D01*
X186626500Y-87180539D01*
X186626500Y-87924680D01*
X186378454Y-87924680D01*
X186378454Y-87180539D01*
X185882360Y-87180539D01*
X185882360Y-88172727D01*
X185634313Y-88172727D01*
X185634313Y-86932493D01*
X187370641Y-86932493D01*
X187370641Y-88172727D01*
G36*
X187370641Y-88668821D02*
G01*
X186998571Y-88668821D01*
X186998571Y-88792844D01*
X186874547Y-88792844D01*
X186874547Y-88916868D01*
X186750524Y-88916868D01*
X186750524Y-89040891D01*
X186626500Y-89040891D01*
X186626500Y-89164914D01*
X186502477Y-89164914D01*
X186502477Y-89288938D01*
X186378454Y-89288938D01*
X186378454Y-89412961D01*
X187370641Y-89412961D01*
X187370641Y-89661008D01*
X185634313Y-89661008D01*
X185634313Y-89412961D01*
X186006383Y-89412961D01*
X186006383Y-89288938D01*
X186130407Y-89288938D01*
X186130407Y-89164914D01*
X186254430Y-89164914D01*
X186254430Y-89040891D01*
X186378454Y-89040891D01*
X186378454Y-88916868D01*
X186502477Y-88916868D01*
X186502477Y-88792844D01*
X186626500Y-88792844D01*
X186626500Y-88668821D01*
X185634313Y-88668821D01*
X185634313Y-88420774D01*
X187370641Y-88420774D01*
X187370641Y-88668821D01*
G37*
X187370641Y-88668821D02*
X186998571Y-88668821D01*
X186998571Y-88792844D01*
X186874547Y-88792844D01*
X186874547Y-88916868D01*
X186750524Y-88916868D01*
X186750524Y-89040891D01*
X186626500Y-89040891D01*
X186626500Y-89164914D01*
X186502477Y-89164914D01*
X186502477Y-89288938D01*
X186378454Y-89288938D01*
X186378454Y-89412961D01*
X187370641Y-89412961D01*
X187370641Y-89661008D01*
X185634313Y-89661008D01*
X185634313Y-89412961D01*
X186006383Y-89412961D01*
X186006383Y-89288938D01*
X186130407Y-89288938D01*
X186130407Y-89164914D01*
X186254430Y-89164914D01*
X186254430Y-89040891D01*
X186378454Y-89040891D01*
X186378454Y-88916868D01*
X186502477Y-88916868D01*
X186502477Y-88792844D01*
X186626500Y-88792844D01*
X186626500Y-88668821D01*
X185634313Y-88668821D01*
X185634313Y-88420774D01*
X187370641Y-88420774D01*
X187370641Y-88668821D01*
G36*
X187122594Y-90033078D02*
G01*
X187246618Y-90033078D01*
X187246618Y-90157102D01*
X187370641Y-90157102D01*
X187370641Y-90901242D01*
X187246618Y-90901242D01*
X187246618Y-91025266D01*
X187122594Y-91025266D01*
X187122594Y-91149289D01*
X186874547Y-91149289D01*
X186874547Y-90901242D01*
X186998571Y-90901242D01*
X186998571Y-90777219D01*
X187122594Y-90777219D01*
X187122594Y-90281125D01*
X186998571Y-90281125D01*
X186998571Y-90157102D01*
X186006383Y-90157102D01*
X186006383Y-90281125D01*
X185882360Y-90281125D01*
X185882360Y-90777219D01*
X186006383Y-90777219D01*
X186006383Y-90901242D01*
X186378454Y-90901242D01*
X186378454Y-90529172D01*
X186626500Y-90529172D01*
X186626500Y-91149289D01*
X185882360Y-91149289D01*
X185882360Y-91025266D01*
X185758336Y-91025266D01*
X185758336Y-90901242D01*
X185634313Y-90901242D01*
X185634313Y-90157102D01*
X185758336Y-90157102D01*
X185758336Y-90033078D01*
X185882360Y-90033078D01*
X185882360Y-89909055D01*
X187122594Y-89909055D01*
X187122594Y-90033078D01*
G37*
X187122594Y-90033078D02*
X187246618Y-90033078D01*
X187246618Y-90157102D01*
X187370641Y-90157102D01*
X187370641Y-90901242D01*
X187246618Y-90901242D01*
X187246618Y-91025266D01*
X187122594Y-91025266D01*
X187122594Y-91149289D01*
X186874547Y-91149289D01*
X186874547Y-90901242D01*
X186998571Y-90901242D01*
X186998571Y-90777219D01*
X187122594Y-90777219D01*
X187122594Y-90281125D01*
X186998571Y-90281125D01*
X186998571Y-90157102D01*
X186006383Y-90157102D01*
X186006383Y-90281125D01*
X185882360Y-90281125D01*
X185882360Y-90777219D01*
X186006383Y-90777219D01*
X186006383Y-90901242D01*
X186378454Y-90901242D01*
X186378454Y-90529172D01*
X186626500Y-90529172D01*
X186626500Y-91149289D01*
X185882360Y-91149289D01*
X185882360Y-91025266D01*
X185758336Y-91025266D01*
X185758336Y-90901242D01*
X185634313Y-90901242D01*
X185634313Y-90157102D01*
X185758336Y-90157102D01*
X185758336Y-90033078D01*
X185882360Y-90033078D01*
X185882360Y-89909055D01*
X187122594Y-89909055D01*
X187122594Y-90033078D01*
G36*
X185882360Y-91893430D02*
G01*
X187122594Y-91893430D01*
X187122594Y-91645383D01*
X187370641Y-91645383D01*
X187370641Y-92389524D01*
X187122594Y-92389524D01*
X187122594Y-92141477D01*
X185882360Y-92141477D01*
X185882360Y-92389524D01*
X185634313Y-92389524D01*
X185634313Y-91645383D01*
X185882360Y-91645383D01*
X185882360Y-91893430D01*
G37*
X185882360Y-91893430D02*
X187122594Y-91893430D01*
X187122594Y-91645383D01*
X187370641Y-91645383D01*
X187370641Y-92389524D01*
X187122594Y-92389524D01*
X187122594Y-92141477D01*
X185882360Y-92141477D01*
X185882360Y-92389524D01*
X185634313Y-92389524D01*
X185634313Y-91645383D01*
X185882360Y-91645383D01*
X185882360Y-91893430D01*
G36*
X187370641Y-93133664D02*
G01*
X186998571Y-93133664D01*
X186998571Y-93257688D01*
X186874547Y-93257688D01*
X186874547Y-93381711D01*
X186750524Y-93381711D01*
X186750524Y-93505735D01*
X186626500Y-93505735D01*
X186626500Y-93629758D01*
X186502477Y-93629758D01*
X186502477Y-93753782D01*
X186378454Y-93753782D01*
X186378454Y-93877805D01*
X187370641Y-93877805D01*
X187370641Y-94125852D01*
X185634313Y-94125852D01*
X185634313Y-93877805D01*
X186006383Y-93877805D01*
X186006383Y-93753782D01*
X186130407Y-93753782D01*
X186130407Y-93629758D01*
X186254430Y-93629758D01*
X186254430Y-93505735D01*
X186378454Y-93505735D01*
X186378454Y-93381711D01*
X186502477Y-93381711D01*
X186502477Y-93257688D01*
X186626500Y-93257688D01*
X186626500Y-93133664D01*
X185634313Y-93133664D01*
X185634313Y-92885617D01*
X187370641Y-92885617D01*
X187370641Y-93133664D01*
G37*
X187370641Y-93133664D02*
X186998571Y-93133664D01*
X186998571Y-93257688D01*
X186874547Y-93257688D01*
X186874547Y-93381711D01*
X186750524Y-93381711D01*
X186750524Y-93505735D01*
X186626500Y-93505735D01*
X186626500Y-93629758D01*
X186502477Y-93629758D01*
X186502477Y-93753782D01*
X186378454Y-93753782D01*
X186378454Y-93877805D01*
X187370641Y-93877805D01*
X187370641Y-94125852D01*
X185634313Y-94125852D01*
X185634313Y-93877805D01*
X186006383Y-93877805D01*
X186006383Y-93753782D01*
X186130407Y-93753782D01*
X186130407Y-93629758D01*
X186254430Y-93629758D01*
X186254430Y-93505735D01*
X186378454Y-93505735D01*
X186378454Y-93381711D01*
X186502477Y-93381711D01*
X186502477Y-93257688D01*
X186626500Y-93257688D01*
X186626500Y-93133664D01*
X185634313Y-93133664D01*
X185634313Y-92885617D01*
X187370641Y-92885617D01*
X187370641Y-93133664D01*
G36*
X187370641Y-95614133D02*
G01*
X187122594Y-95614133D01*
X187122594Y-94621946D01*
X186626500Y-94621946D01*
X186626500Y-95366086D01*
X186378454Y-95366086D01*
X186378454Y-94621946D01*
X185882360Y-94621946D01*
X185882360Y-95614133D01*
X185634313Y-95614133D01*
X185634313Y-94373899D01*
X187370641Y-94373899D01*
X187370641Y-95614133D01*
G37*
X187370641Y-95614133D02*
X187122594Y-95614133D01*
X187122594Y-94621946D01*
X186626500Y-94621946D01*
X186626500Y-95366086D01*
X186378454Y-95366086D01*
X186378454Y-94621946D01*
X185882360Y-94621946D01*
X185882360Y-95614133D01*
X185634313Y-95614133D01*
X185634313Y-94373899D01*
X187370641Y-94373899D01*
X187370641Y-95614133D01*
G36*
X187370641Y-97102414D02*
G01*
X187122594Y-97102414D01*
X187122594Y-96110227D01*
X186626500Y-96110227D01*
X186626500Y-96854368D01*
X186378454Y-96854368D01*
X186378454Y-96110227D01*
X185882360Y-96110227D01*
X185882360Y-97102414D01*
X185634313Y-97102414D01*
X185634313Y-95862180D01*
X187370641Y-95862180D01*
X187370641Y-97102414D01*
G37*
X187370641Y-97102414D02*
X187122594Y-97102414D01*
X187122594Y-96110227D01*
X186626500Y-96110227D01*
X186626500Y-96854368D01*
X186378454Y-96854368D01*
X186378454Y-96110227D01*
X185882360Y-96110227D01*
X185882360Y-97102414D01*
X185634313Y-97102414D01*
X185634313Y-95862180D01*
X187370641Y-95862180D01*
X187370641Y-97102414D01*
G36*
X187370641Y-98342649D02*
G01*
X187246618Y-98342649D01*
X187246618Y-98466672D01*
X187122594Y-98466672D01*
X187122594Y-98590696D01*
X186626500Y-98590696D01*
X186626500Y-98466672D01*
X186502477Y-98466672D01*
X186502477Y-98342649D01*
X186378454Y-98342649D01*
X186378454Y-98218625D01*
X186626500Y-98218625D01*
X186750524Y-98218625D01*
X186750524Y-98342649D01*
X186998571Y-98342649D01*
X186998571Y-98218625D01*
X187122594Y-98218625D01*
X187122594Y-97598508D01*
X186626500Y-97598508D01*
X186626500Y-98218625D01*
X186378454Y-98218625D01*
X186378454Y-98094602D01*
X186254430Y-98094602D01*
X186254430Y-98218625D01*
X186130407Y-98218625D01*
X186130407Y-98342649D01*
X186006383Y-98342649D01*
X186006383Y-98466672D01*
X185882360Y-98466672D01*
X185882360Y-98590696D01*
X185634313Y-98590696D01*
X185634313Y-98342649D01*
X185758336Y-98342649D01*
X185758336Y-98218625D01*
X185882360Y-98218625D01*
X185882360Y-98094602D01*
X186006383Y-98094602D01*
X186006383Y-97970578D01*
X186130407Y-97970578D01*
X186130407Y-97846555D01*
X186254430Y-97846555D01*
X186254430Y-97722532D01*
X186378454Y-97722532D01*
X186378454Y-97598508D01*
X185634313Y-97598508D01*
X185634313Y-97350461D01*
X187370641Y-97350461D01*
X187370641Y-98342649D01*
G37*
X187370641Y-98342649D02*
X187246618Y-98342649D01*
X187246618Y-98466672D01*
X187122594Y-98466672D01*
X187122594Y-98590696D01*
X186626500Y-98590696D01*
X186626500Y-98466672D01*
X186502477Y-98466672D01*
X186502477Y-98342649D01*
X186378454Y-98342649D01*
X186378454Y-98218625D01*
X186626500Y-98218625D01*
X186750524Y-98218625D01*
X186750524Y-98342649D01*
X186998571Y-98342649D01*
X186998571Y-98218625D01*
X187122594Y-98218625D01*
X187122594Y-97598508D01*
X186626500Y-97598508D01*
X186626500Y-98218625D01*
X186378454Y-98218625D01*
X186378454Y-98094602D01*
X186254430Y-98094602D01*
X186254430Y-98218625D01*
X186130407Y-98218625D01*
X186130407Y-98342649D01*
X186006383Y-98342649D01*
X186006383Y-98466672D01*
X185882360Y-98466672D01*
X185882360Y-98590696D01*
X185634313Y-98590696D01*
X185634313Y-98342649D01*
X185758336Y-98342649D01*
X185758336Y-98218625D01*
X185882360Y-98218625D01*
X185882360Y-98094602D01*
X186006383Y-98094602D01*
X186006383Y-97970578D01*
X186130407Y-97970578D01*
X186130407Y-97846555D01*
X186254430Y-97846555D01*
X186254430Y-97722532D01*
X186378454Y-97722532D01*
X186378454Y-97598508D01*
X185634313Y-97598508D01*
X185634313Y-97350461D01*
X187370641Y-97350461D01*
X187370641Y-98342649D01*
D11*
%TO.C,R1*%
X212963000Y-92183000D03*
X210963000Y-92183000D03*
%TD*%
D12*
%TO.C,CR2032*%
X174879000Y-99715000D03*
X174879000Y-76815000D03*
D13*
X174879000Y-88265000D03*
%TD*%
D14*
%TO.C,U1*%
X227329500Y-95395000D03*
X227329500Y-94595000D03*
X227329500Y-93795000D03*
X227329500Y-92995000D03*
X227329500Y-92195000D03*
X227329500Y-91395000D03*
X227329500Y-90595000D03*
X227329500Y-89795000D03*
X227329500Y-88995000D03*
X227329500Y-88195000D03*
X227329500Y-87395000D03*
X227329500Y-86595000D03*
X227329500Y-85795000D03*
X227329500Y-84995000D03*
X227329500Y-84195000D03*
X227329500Y-83395000D03*
X227329500Y-82595000D03*
X227329500Y-81795000D03*
X227329500Y-80995000D03*
X227329500Y-80195000D03*
X227329500Y-79395000D03*
X227329500Y-78595000D03*
X216154500Y-78595000D03*
X216154500Y-79395000D03*
X216154500Y-80195000D03*
X216154500Y-80995000D03*
X216154500Y-81795000D03*
X216154500Y-82595000D03*
X216154500Y-83395000D03*
X216154500Y-84195000D03*
X216154500Y-84995000D03*
X216154500Y-85795000D03*
X216154500Y-86595000D03*
X216154500Y-87395000D03*
X216154500Y-88195000D03*
X216154500Y-88995000D03*
X216154500Y-89795000D03*
X216154500Y-90595000D03*
X216154500Y-91395000D03*
X216154500Y-92195000D03*
X216154500Y-92995000D03*
X216154500Y-93795000D03*
X216154500Y-94595000D03*
X216154500Y-95395000D03*
%TD*%
D15*
%TO.C,C4*%
X234489000Y-88538500D03*
X234489000Y-85413500D03*
%TD*%
D16*
%TO.C,C2*%
X209851000Y-85286500D03*
X209851000Y-88411500D03*
%TD*%
D17*
%TO.C,D1*%
X205232000Y-88260000D03*
X205232000Y-86360000D03*
X203357000Y-87310000D03*
%TD*%
D18*
%TO.C,J1*%
X251573000Y-112138000D03*
X251573000Y-64138000D03*
D19*
X252222000Y-67183000D03*
X252222000Y-68453000D03*
X252222000Y-69723000D03*
X252222000Y-70993000D03*
X252222000Y-72263000D03*
X252222000Y-73533000D03*
X252222000Y-74803000D03*
X252222000Y-76073000D03*
X252222000Y-77343000D03*
X252222000Y-78613000D03*
X252222000Y-79883000D03*
X252222000Y-81153000D03*
X252222000Y-82423000D03*
X252222000Y-83693000D03*
X252222000Y-84963000D03*
X252222000Y-86233000D03*
X252222000Y-87503000D03*
X252222000Y-88773000D03*
X252222000Y-90043000D03*
X252222000Y-91313000D03*
X252222000Y-92583000D03*
X252222000Y-93853000D03*
X252222000Y-95123000D03*
X252222000Y-96393000D03*
X252222000Y-97663000D03*
X252222000Y-98933000D03*
X252222000Y-100203000D03*
X252222000Y-101473000D03*
X252222000Y-102743000D03*
X252222000Y-104013000D03*
X252222000Y-105283000D03*
X252222000Y-106553000D03*
X252222000Y-107823000D03*
X252267000Y-109093000D03*
%TD*%
D20*
%TO.C,C3*%
X230933000Y-88013500D03*
X230933000Y-85938500D03*
%TD*%
D21*
%TO.C,C1*%
X213280000Y-85938500D03*
X213280000Y-88013500D03*
%TD*%
M02*
