M48
; DRILL file {KiCad (6.0.4-0)} date 2023 December 10, Sunday 22:35:46
; FORMAT={-:-/ absolute / inch / decimal}
; #@! TF.CreationDate,2023-12-10T22:35:46+01:00
; #@! TF.GenerationSoftware,Kicad,Pcbnew,(6.0.4-0)
; #@! TF.FileFunction,Plated,1,2,PTH
FMAT,2
INCH
; #@! TA.AperFunction,Plated,PTH,ViaDrill
T1C0.0118
%
G90
G05
T1
X6.625Y-3.12
X6.64Y-3.84
X7.075Y-3.11
X7.08Y-3.845
X8.1858Y-3.4808
X8.25Y-3.63
X8.33Y-3.475
X8.562Y-3.407
X8.615Y-3.66
X8.6575Y-3.5369
X8.875Y-3.44
X9.16Y-3.375
X9.16Y-3.7518
X9.165Y-3.85
X9.23Y-3.58
X9.235Y-4.09
X9.27Y-3.555
X9.28Y-3.0975
X9.28Y-4.14
X9.3Y-3.365
X9.31Y-3.68
X9.31Y-3.985
X9.335Y-3.59
X9.35Y-3.125
X9.36Y-2.82
X9.365Y-3.705
X9.365Y-3.935
X9.375Y-3.54
X9.395Y-3.095
X9.3975Y-3.25
X9.405Y-3.4
X9.405Y-4.185
X9.4275Y-3.2833
X9.435Y-3.74
X9.435Y-3.89
X9.44Y-3.62
X9.445Y-3.45
X9.45Y-2.65
X9.47Y-3.65
X9.475Y-4.04
X9.4975Y-2.9392
X9.51Y-2.68
X9.537Y-3.433
X9.555Y-2.705
X9.5975Y-2.7325
X9.6Y-3.25
X9.66Y-3.635
X9.665Y-2.7525
X9.69Y-3.22
X9.71Y-3.075
X9.755Y-2.78
X9.76Y-3.2225
X9.79Y-3.19
X9.81Y-2.985
X9.81Y-3.49
X9.83Y-4.24
X9.855Y-3.115
X9.855Y-3.1841
X9.875Y-2.64
X9.875Y-4.29
T0
M30
