%TF.GenerationSoftware,KiCad,Pcbnew,(6.0.4-0)*%
%TF.CreationDate,2023-12-10T22:35:43+01:00*%
%TF.ProjectId,pcmcia-sram,70636d63-6961-42d7-9372-616d2e6b6963,rev?*%
%TF.SameCoordinates,Original*%
%TF.FileFunction,Copper,L1,Top*%
%TF.FilePolarity,Positive*%
%FSLAX46Y46*%
G04 Gerber Fmt 4.6, Leading zero omitted, Abs format (unit mm)*
G04 Created by KiCad (PCBNEW (6.0.4-0)) date 2023-12-10 22:35:43*
%MOMM*%
%LPD*%
G01*
G04 APERTURE LIST*
G04 Aperture macros list*
%AMRoundRect*
0 Rectangle with rounded corners*
0 $1 Rounding radius*
0 $2 $3 $4 $5 $6 $7 $8 $9 X,Y pos of 4 corners*
0 Add a 4 corners polygon primitive as box body*
4,1,4,$2,$3,$4,$5,$6,$7,$8,$9,$2,$3,0*
0 Add four circle primitives for the rounded corners*
1,1,$1+$1,$2,$3*
1,1,$1+$1,$4,$5*
1,1,$1+$1,$6,$7*
1,1,$1+$1,$8,$9*
0 Add four rect primitives between the rounded corners*
20,1,$1+$1,$2,$3,$4,$5,0*
20,1,$1+$1,$4,$5,$6,$7,0*
20,1,$1+$1,$6,$7,$8,$9,0*
20,1,$1+$1,$8,$9,$2,$3,0*%
G04 Aperture macros list end*
%TA.AperFunction,SMDPad,CuDef*%
%ADD10RoundRect,0.250000X0.350000X0.450000X-0.350000X0.450000X-0.350000X-0.450000X0.350000X-0.450000X0*%
%TD*%
%TA.AperFunction,SMDPad,CuDef*%
%ADD11R,5.100000X2.500000*%
%TD*%
%TA.AperFunction,SMDPad,CuDef*%
%ADD12C,17.800000*%
%TD*%
%TA.AperFunction,SMDPad,CuDef*%
%ADD13RoundRect,0.137500X0.625000X0.137500X-0.625000X0.137500X-0.625000X-0.137500X0.625000X-0.137500X0*%
%TD*%
%TA.AperFunction,SMDPad,CuDef*%
%ADD14RoundRect,0.250000X0.650000X-0.412500X0.650000X0.412500X-0.650000X0.412500X-0.650000X-0.412500X0*%
%TD*%
%TA.AperFunction,SMDPad,CuDef*%
%ADD15RoundRect,0.250000X-0.650000X0.412500X-0.650000X-0.412500X0.650000X-0.412500X0.650000X0.412500X0*%
%TD*%
%TA.AperFunction,SMDPad,CuDef*%
%ADD16RoundRect,0.150000X0.587500X0.150000X-0.587500X0.150000X-0.587500X-0.150000X0.587500X-0.150000X0*%
%TD*%
%TA.AperFunction,SMDPad,CuDef*%
%ADD17R,2.400000X0.740000*%
%TD*%
%TA.AperFunction,SMDPad,CuDef*%
%ADD18RoundRect,0.250000X0.475000X-0.337500X0.475000X0.337500X-0.475000X0.337500X-0.475000X-0.337500X0*%
%TD*%
%TA.AperFunction,SMDPad,CuDef*%
%ADD19RoundRect,0.250000X-0.475000X0.337500X-0.475000X-0.337500X0.475000X-0.337500X0.475000X0.337500X0*%
%TD*%
%TA.AperFunction,ViaPad*%
%ADD20C,0.700000*%
%TD*%
%TA.AperFunction,Conductor*%
%ADD21C,0.500000*%
%TD*%
%TA.AperFunction,Conductor*%
%ADD22C,0.300000*%
%TD*%
%TA.AperFunction,Conductor*%
%ADD23C,0.250000*%
%TD*%
G04 APERTURE END LIST*
D10*
%TO.P,R1,1*%
%TO.N,+5V*%
X212963000Y-92183000D03*
%TO.P,R1,2*%
%TO.N,GND*%
X210963000Y-92183000D03*
%TD*%
D11*
%TO.P,CR2032,P2*%
%TO.N,+BATT*%
X174879000Y-99715000D03*
%TO.P,CR2032,P1*%
X174879000Y-76815000D03*
D12*
%TO.P,CR2032,N1*%
%TO.N,GND*%
X174879000Y-88265000D03*
%TD*%
D13*
%TO.P,U1,1,A4*%
%TO.N,/A4*%
X227329500Y-95395000D03*
%TO.P,U1,2,A3*%
%TO.N,/A3*%
X227329500Y-94595000D03*
%TO.P,U1,3,A2*%
%TO.N,/A2*%
X227329500Y-93795000D03*
%TO.P,U1,4,A1*%
%TO.N,/A1*%
X227329500Y-92995000D03*
%TO.P,U1,5,A0*%
%TO.N,/A0*%
X227329500Y-92195000D03*
%TO.P,U1,6,\u002ACE*%
%TO.N,/CE*%
X227329500Y-91395000D03*
%TO.P,U1,7,NC*%
%TO.N,unconnected-(U1-Pad7)*%
X227329500Y-90595000D03*
%TO.P,U1,8,NC*%
%TO.N,unconnected-(U1-Pad8)*%
X227329500Y-89795000D03*
%TO.P,U1,9,DQ0*%
%TO.N,/D0*%
X227329500Y-88995000D03*
%TO.P,U1,10,DQ1*%
%TO.N,/D1*%
X227329500Y-88195000D03*
%TO.P,U1,11,VCC*%
%TO.N,VCC*%
X227329500Y-87395000D03*
%TO.P,U1,12,VSS*%
%TO.N,GND*%
X227329500Y-86595000D03*
%TO.P,U1,13,DQ2*%
%TO.N,/D2*%
X227329500Y-85795000D03*
%TO.P,U1,14,DQ3*%
%TO.N,/D3*%
X227329500Y-84995000D03*
%TO.P,U1,15,NC*%
%TO.N,unconnected-(U1-Pad15)*%
X227329500Y-84195000D03*
%TO.P,U1,16,NC*%
%TO.N,unconnected-(U1-Pad16)*%
X227329500Y-83395000D03*
%TO.P,U1,17,\u002AWE*%
%TO.N,/WE*%
X227329500Y-82595000D03*
%TO.P,U1,18,A19*%
%TO.N,/A19*%
X227329500Y-81795000D03*
%TO.P,U1,19,A18*%
%TO.N,/A18*%
X227329500Y-80995000D03*
%TO.P,U1,20,A17*%
%TO.N,/A17*%
X227329500Y-80195000D03*
%TO.P,U1,21,A16*%
%TO.N,/A16*%
X227329500Y-79395000D03*
%TO.P,U1,22,A15*%
%TO.N,/A15*%
X227329500Y-78595000D03*
%TO.P,U1,23,A14*%
%TO.N,/A14*%
X216154500Y-78595000D03*
%TO.P,U1,24,A13*%
%TO.N,/A13*%
X216154500Y-79395000D03*
%TO.P,U1,25,A12*%
%TO.N,/A12*%
X216154500Y-80195000D03*
%TO.P,U1,26,A11*%
%TO.N,/A11*%
X216154500Y-80995000D03*
%TO.P,U1,27,A10*%
%TO.N,/A10*%
X216154500Y-81795000D03*
%TO.P,U1,28,A9*%
%TO.N,/A9*%
X216154500Y-82595000D03*
%TO.P,U1,29,NC*%
%TO.N,unconnected-(U1-Pad29)*%
X216154500Y-83395000D03*
%TO.P,U1,30,NC*%
%TO.N,unconnected-(U1-Pad30)*%
X216154500Y-84195000D03*
%TO.P,U1,31,DQ4*%
%TO.N,/D4*%
X216154500Y-84995000D03*
%TO.P,U1,32,DQ5*%
%TO.N,/D5*%
X216154500Y-85795000D03*
%TO.P,U1,33,VCC*%
%TO.N,VCC*%
X216154500Y-86595000D03*
%TO.P,U1,34,VSS*%
%TO.N,GND*%
X216154500Y-87395000D03*
%TO.P,U1,35,DQ6*%
%TO.N,/D6*%
X216154500Y-88195000D03*
%TO.P,U1,36,DQ7*%
%TO.N,/D7*%
X216154500Y-88995000D03*
%TO.P,U1,37,NC*%
%TO.N,unconnected-(U1-Pad37)*%
X216154500Y-89795000D03*
%TO.P,U1,38,NC*%
%TO.N,unconnected-(U1-Pad38)*%
X216154500Y-90595000D03*
%TO.P,U1,39,A8*%
%TO.N,/A8*%
X216154500Y-91395000D03*
%TO.P,U1,40,CE2*%
%TO.N,+5V*%
X216154500Y-92195000D03*
%TO.P,U1,41,\u002AOE*%
%TO.N,/OE*%
X216154500Y-92995000D03*
%TO.P,U1,42,A7*%
%TO.N,/A7*%
X216154500Y-93795000D03*
%TO.P,U1,43,A6*%
%TO.N,/A6*%
X216154500Y-94595000D03*
%TO.P,U1,44,A5*%
%TO.N,/A5*%
X216154500Y-95395000D03*
%TD*%
D14*
%TO.P,C4,1*%
%TO.N,VCC*%
X234489000Y-88538500D03*
%TO.P,C4,2*%
%TO.N,GND*%
X234489000Y-85413500D03*
%TD*%
D15*
%TO.P,C2,1*%
%TO.N,VCC*%
X209851000Y-85286500D03*
%TO.P,C2,2*%
%TO.N,GND*%
X209851000Y-88411500D03*
%TD*%
D16*
%TO.P,D1,1*%
%TO.N,+5V*%
X205232000Y-88260000D03*
%TO.P,D1,2*%
%TO.N,+BATT*%
X205232000Y-86360000D03*
%TO.P,D1,3*%
%TO.N,VCC*%
X203357000Y-87310000D03*
%TD*%
D17*
%TO.P,J1,1,GND*%
%TO.N,GND*%
X252222000Y-67183000D03*
%TO.P,J1,2,D3*%
%TO.N,/D3*%
X252222000Y-68453000D03*
%TO.P,J1,3,D4*%
%TO.N,/D4*%
X252222000Y-69723000D03*
%TO.P,J1,4,D5*%
%TO.N,/D5*%
X252222000Y-70993000D03*
%TO.P,J1,5,D6*%
%TO.N,/D6*%
X252222000Y-72263000D03*
%TO.P,J1,6,D7*%
%TO.N,/D7*%
X252222000Y-73533000D03*
%TO.P,J1,7,_CE1*%
%TO.N,/CE*%
X252222000Y-74803000D03*
%TO.P,J1,8,A10*%
%TO.N,/A10*%
X252222000Y-76073000D03*
%TO.P,J1,9,_OE*%
%TO.N,/OE*%
X252222000Y-77343000D03*
%TO.P,J1,10,A11*%
%TO.N,/A11*%
X252222000Y-78613000D03*
%TO.P,J1,11,A9*%
%TO.N,/A9*%
X252222000Y-79883000D03*
%TO.P,J1,12,A8*%
%TO.N,/A8*%
X252222000Y-81153000D03*
%TO.P,J1,13,A13*%
%TO.N,/A13*%
X252222000Y-82423000D03*
%TO.P,J1,14,A14*%
%TO.N,/A14*%
X252222000Y-83693000D03*
%TO.P,J1,15,_WE*%
%TO.N,/WE*%
X252222000Y-84963000D03*
%TO.P,J1,16,_BUSY/_IREQ*%
%TO.N,unconnected-(J1-Pad16)*%
X252222000Y-86233000D03*
%TO.P,J1,17,VCC*%
%TO.N,+5V*%
X252222000Y-87503000D03*
%TO.P,J1,18,VPP1*%
%TO.N,unconnected-(J1-Pad18)*%
X252222000Y-88773000D03*
%TO.P,J1,19,A16*%
%TO.N,/A16*%
X252222000Y-90043000D03*
%TO.P,J1,20,A15*%
%TO.N,/A15*%
X252222000Y-91313000D03*
%TO.P,J1,21,A12*%
%TO.N,/A12*%
X252222000Y-92583000D03*
%TO.P,J1,22,A7*%
%TO.N,/A7*%
X252222000Y-93853000D03*
%TO.P,J1,23,A6*%
%TO.N,/A6*%
X252222000Y-95123000D03*
%TO.P,J1,24,A5*%
%TO.N,/A5*%
X252222000Y-96393000D03*
%TO.P,J1,25,A4*%
%TO.N,/A4*%
X252222000Y-97663000D03*
%TO.P,J1,26,A3*%
%TO.N,/A3*%
X252222000Y-98933000D03*
%TO.P,J1,27,A2*%
%TO.N,/A2*%
X252222000Y-100203000D03*
%TO.P,J1,28,A1*%
%TO.N,/A1*%
X252222000Y-101473000D03*
%TO.P,J1,29,A0*%
%TO.N,/A0*%
X252222000Y-102743000D03*
%TO.P,J1,30,D0*%
%TO.N,/D0*%
X252222000Y-104013000D03*
%TO.P,J1,31,D1*%
%TO.N,/D1*%
X252222000Y-105283000D03*
%TO.P,J1,32,D2*%
%TO.N,/D2*%
X252222000Y-106553000D03*
%TO.P,J1,33,WP/_IOIS16*%
%TO.N,+5V*%
X252222000Y-107823000D03*
%TO.P,J1,34,GND*%
%TO.N,GND*%
X252267000Y-109093000D03*
%TD*%
D18*
%TO.P,C3,1*%
%TO.N,VCC*%
X230933000Y-88013500D03*
%TO.P,C3,2*%
%TO.N,GND*%
X230933000Y-85938500D03*
%TD*%
D19*
%TO.P,C1,1*%
%TO.N,VCC*%
X213280000Y-85938500D03*
%TO.P,C1,2*%
%TO.N,GND*%
X213280000Y-88013500D03*
%TD*%
D20*
%TO.N,GND*%
X250825000Y-108966000D03*
X209550000Y-92202000D03*
X250825000Y-67056000D03*
X207918500Y-88411500D03*
X179705000Y-78993000D03*
X179832000Y-97662000D03*
X236220000Y-85471000D03*
X232664000Y-85725000D03*
X211582000Y-88265000D03*
X168275000Y-79247000D03*
X168656000Y-97535000D03*
%TO.N,/D3*%
X240030000Y-67310000D03*
X239459500Y-83396602D03*
%TO.N,/A10*%
X249174000Y-75819000D03*
X247777000Y-70612000D03*
%TO.N,/A11*%
X245491000Y-69912500D03*
X246634000Y-78105000D03*
%TO.N,/A9*%
X238633000Y-78613000D03*
X237744000Y-71628000D03*
%TO.N,/A8*%
X250317000Y-79121000D03*
X250317000Y-80876989D03*
%TO.N,/A13*%
X243840000Y-82550000D03*
X242697000Y-68707000D03*
%TO.N,/A14*%
X242239122Y-87198878D03*
X241554000Y-68072000D03*
%TO.N,VCC*%
X217474253Y-86537253D03*
X225425000Y-87376000D03*
%TO.N,/A16*%
X237490000Y-79375000D03*
X238125000Y-89916000D03*
%TO.N,/A15*%
X237109000Y-91186000D03*
X235712000Y-78675500D03*
%TO.N,/A12*%
X243777500Y-69404500D03*
X245364000Y-92329000D03*
%TO.N,/A4*%
X232664000Y-95294500D03*
X232791000Y-97790000D03*
%TO.N,/A3*%
X239649000Y-98806000D03*
X239649000Y-94996000D03*
%TO.N,/A2*%
X237871000Y-94107000D03*
X237871000Y-99949000D03*
%TO.N,/A1*%
X236474000Y-93472000D03*
X236474000Y-101219000D03*
%TO.N,/A0*%
X240665000Y-102616000D03*
X240538000Y-92710000D03*
%TO.N,/D0*%
X234569000Y-103886000D03*
X234442000Y-90932000D03*
%TO.N,/D1*%
X235458000Y-90297000D03*
X235712000Y-105156000D03*
%TO.N,/D2*%
X238887000Y-86360000D03*
X238887000Y-106299000D03*
%TO.N,/A17*%
X248666000Y-81026000D03*
%TO.N,/A18*%
X247904000Y-81850500D03*
%TO.N,/A19*%
X246126000Y-81788000D03*
%TO.N,+5V*%
X249682000Y-107696000D03*
X249174000Y-88646000D03*
%TO.N,/CE*%
X241235500Y-74655989D03*
X239776000Y-91948000D03*
%TO.N,/OE*%
X218821000Y-92964000D03*
X219899500Y-89836750D03*
%TO.N,/WE*%
X239903000Y-87630000D03*
X238697500Y-82550000D03*
%TD*%
D21*
%TO.N,+BATT*%
X174879000Y-99715000D02*
X192131000Y-99715000D01*
X192131000Y-99715000D02*
X201803000Y-90043000D01*
X201803000Y-90043000D02*
X201803000Y-86360000D01*
X201803000Y-86360000D02*
X205232000Y-86360000D01*
X174879000Y-76815000D02*
X192258000Y-76815000D01*
X192258000Y-76815000D02*
X201803000Y-86360000D01*
%TO.N,GND*%
X213280000Y-88013500D02*
X213898500Y-87395000D01*
X211833500Y-88013500D02*
X211582000Y-88265000D01*
X168656000Y-93853000D02*
X168656000Y-97535000D01*
X227329500Y-86595000D02*
X230276500Y-86595000D01*
X174498000Y-88011000D02*
X168275000Y-81788000D01*
X252648000Y-108966000D02*
X250825000Y-108966000D01*
X230276500Y-86595000D02*
X230933000Y-85938500D01*
X209569000Y-92183000D02*
X209550000Y-92202000D01*
X210963000Y-92183000D02*
X209569000Y-92183000D01*
X236162500Y-85413500D02*
X236220000Y-85471000D01*
X174498000Y-88011000D02*
X168656000Y-93853000D01*
X174498000Y-88011000D02*
X179705000Y-82804000D01*
X234489000Y-85413500D02*
X236162500Y-85413500D01*
X174498000Y-88011000D02*
X179832000Y-93345000D01*
X168275000Y-81788000D02*
X168275000Y-79247000D01*
X232664000Y-85725000D02*
X231146500Y-85725000D01*
X179832000Y-93345000D02*
X179832000Y-97662000D01*
X179705000Y-82804000D02*
X179705000Y-78993000D01*
X234489000Y-85413500D02*
X232975500Y-85413500D01*
X213280000Y-88013500D02*
X211833500Y-88013500D01*
X211435500Y-88411500D02*
X211582000Y-88265000D01*
X252603000Y-67056000D02*
X250825000Y-67056000D01*
X209851000Y-88411500D02*
X207918500Y-88411500D01*
X209851000Y-88411500D02*
X211435500Y-88411500D01*
X213898500Y-87395000D02*
X216154500Y-87395000D01*
X232975500Y-85413500D02*
X232664000Y-85725000D01*
D22*
%TO.N,/D3*%
X239459500Y-83396602D02*
X239439409Y-83376511D01*
X239439409Y-83376511D02*
X229599239Y-83376511D01*
X249581741Y-66802000D02*
X251105741Y-68326000D01*
X251105741Y-68326000D02*
X252603000Y-68326000D01*
X240538000Y-66802000D02*
X249581741Y-66802000D01*
X229599239Y-83376511D02*
X227980750Y-84995000D01*
X227980750Y-84995000D02*
X227329500Y-84995000D01*
X240030000Y-67310000D02*
X240538000Y-66802000D01*
%TO.N,/D4*%
X227590178Y-72517000D02*
X238561572Y-72517000D01*
X217266520Y-84534230D02*
X217266520Y-82840658D01*
X250952000Y-69596000D02*
X252603000Y-69596000D01*
X239577572Y-71501000D02*
X249047000Y-71501000D01*
X238561572Y-72517000D02*
X239577572Y-71501000D01*
X216805750Y-84995000D02*
X217266520Y-84534230D01*
X217266520Y-82840658D02*
X227590178Y-72517000D01*
X249047000Y-71501000D02*
X250952000Y-69596000D01*
X216154500Y-84995000D02*
X216805750Y-84995000D01*
%TO.N,/D5*%
X238633000Y-73152000D02*
X239784480Y-72000520D01*
X216805750Y-85795000D02*
X218059000Y-84541750D01*
X249690480Y-72000520D02*
X250825000Y-70866000D01*
X239784480Y-72000520D02*
X249690480Y-72000520D01*
X218059000Y-83058000D02*
X227965000Y-73152000D01*
X227965000Y-73152000D02*
X238633000Y-73152000D01*
X216154500Y-85795000D02*
X216805750Y-85795000D01*
X250825000Y-70866000D02*
X252603000Y-70866000D01*
X218059000Y-84541750D02*
X218059000Y-83058000D01*
%TO.N,/D6*%
X238942572Y-73914000D02*
X240212572Y-72644000D01*
X228092000Y-73914000D02*
X238942572Y-73914000D01*
X216805750Y-88195000D02*
X218694000Y-86306750D01*
X250190000Y-72644000D02*
X250698000Y-72136000D01*
X250698000Y-72136000D02*
X252603000Y-72136000D01*
X216154500Y-88195000D02*
X216805750Y-88195000D01*
X240212572Y-72644000D02*
X250190000Y-72644000D01*
X218694000Y-86306750D02*
X218694000Y-83312000D01*
X218694000Y-83312000D02*
X228092000Y-73914000D01*
%TO.N,/D7*%
X252052511Y-73956489D02*
X252603000Y-73406000D01*
X219329000Y-86471750D02*
X219329000Y-83566000D01*
X239606511Y-73956489D02*
X252052511Y-73956489D01*
X228219000Y-74676000D02*
X238887000Y-74676000D01*
X216805750Y-88995000D02*
X219329000Y-86471750D01*
X216154500Y-88995000D02*
X216805750Y-88995000D01*
X238887000Y-74676000D02*
X239606511Y-73956489D01*
X219329000Y-83566000D02*
X228219000Y-74676000D01*
%TO.N,/A10*%
X247777000Y-70612000D02*
X226822000Y-70612000D01*
X216805750Y-81795000D02*
X216154500Y-81795000D01*
X219329000Y-78105000D02*
X219329000Y-79271750D01*
X219329000Y-79271750D02*
X216805750Y-81795000D01*
X249174000Y-75819000D02*
X249301000Y-75946000D01*
X226822000Y-70612000D02*
X219329000Y-78105000D01*
X249301000Y-75946000D02*
X252603000Y-75946000D01*
%TO.N,/A11*%
X245491000Y-69912500D02*
X245299500Y-70104000D01*
X252222000Y-78105000D02*
X252603000Y-78486000D01*
X226568000Y-70104000D02*
X218821000Y-77851000D01*
X245299500Y-70104000D02*
X226568000Y-70104000D01*
X218821000Y-78979750D02*
X216805750Y-80995000D01*
X216805750Y-80995000D02*
X216154500Y-80995000D01*
X218821000Y-77851000D02*
X218821000Y-78979750D01*
X246634000Y-78105000D02*
X252222000Y-78105000D01*
%TO.N,/A9*%
X216630271Y-82770480D02*
X216329980Y-82770480D01*
X219964000Y-79436751D02*
X216630271Y-82770480D01*
X237617000Y-71501000D02*
X227076000Y-71501000D01*
X237744000Y-71628000D02*
X237617000Y-71501000D01*
X248041909Y-79695481D02*
X248229428Y-79883000D01*
X243713000Y-78613000D02*
X244795480Y-79695480D01*
X238633000Y-78613000D02*
X243713000Y-78613000D01*
X216329980Y-82770480D02*
X216154500Y-82595000D01*
X227076000Y-71501000D02*
X219964000Y-78613000D01*
X244795480Y-79695480D02*
X248041909Y-79695481D01*
X219964000Y-78613000D02*
X219964000Y-79436751D01*
X248229428Y-79883000D02*
X252222000Y-79883000D01*
%TO.N,/A8*%
X252603000Y-81026000D02*
X250466011Y-81026000D01*
X245745000Y-79121000D02*
X244348000Y-77724000D01*
X250466011Y-81026000D02*
X250317000Y-80876989D01*
X220599011Y-90296989D02*
X219501000Y-91395000D01*
X244348000Y-77724000D02*
X226749250Y-77724000D01*
X250317000Y-79121000D02*
X245745000Y-79121000D01*
X219501000Y-91395000D02*
X216154500Y-91395000D01*
X226749250Y-77724000D02*
X220599011Y-83874239D01*
X220599011Y-83874239D02*
X220599011Y-90296989D01*
%TO.N,/A13*%
X243840000Y-82550000D02*
X252349000Y-82550000D01*
X242697000Y-68707000D02*
X242632489Y-68771511D01*
X242632489Y-68771511D02*
X226122489Y-68771511D01*
X217551000Y-78649750D02*
X216805750Y-79395000D01*
X226122489Y-68771511D02*
X217551000Y-77343000D01*
X217551000Y-77343000D02*
X217551000Y-78649750D01*
X216805750Y-79395000D02*
X216154500Y-79395000D01*
%TO.N,/A14*%
X242239122Y-87198878D02*
X242289244Y-87249000D01*
X216154500Y-77723500D02*
X216154500Y-78595000D01*
X247269000Y-87249000D02*
X250825000Y-83693000D01*
X242289244Y-87249000D02*
X247269000Y-87249000D01*
X225806000Y-68072000D02*
X216154500Y-77723500D01*
X241554000Y-68072000D02*
X225806000Y-68072000D01*
X250825000Y-83693000D02*
X252222000Y-83693000D01*
D21*
%TO.N,VCC*%
X213936500Y-86595000D02*
X216154500Y-86595000D01*
X232664000Y-88265000D02*
X231184500Y-88265000D01*
X217474253Y-86537253D02*
X217416506Y-86595000D01*
X213280000Y-85938500D02*
X211922500Y-85938500D01*
X203357000Y-87310000D02*
X207827500Y-87310000D01*
X232937500Y-88538500D02*
X232664000Y-88265000D01*
X230314500Y-87395000D02*
X230933000Y-88013500D01*
X213280000Y-85938500D02*
X213936500Y-86595000D01*
X227329500Y-87395000D02*
X230314500Y-87395000D01*
D23*
X227310500Y-87376000D02*
X227329500Y-87395000D01*
D21*
X217416506Y-86595000D02*
X216154500Y-86595000D01*
X207827500Y-87310000D02*
X209851000Y-85286500D01*
X209851000Y-85286500D02*
X211270500Y-85286500D01*
X211922500Y-85938500D02*
X211582000Y-85598000D01*
D23*
X225425000Y-87376000D02*
X227310500Y-87376000D01*
D21*
X211270500Y-85286500D02*
X211582000Y-85598000D01*
X234489000Y-88538500D02*
X232937500Y-88538500D01*
D22*
%TO.N,/A16*%
X237490000Y-79375000D02*
X227349500Y-79375000D01*
X238125000Y-89916000D02*
X252603000Y-89916000D01*
%TO.N,/A15*%
X237109000Y-91186000D02*
X252603000Y-91186000D01*
X235712000Y-78675500D02*
X235631500Y-78595000D01*
X235631500Y-78595000D02*
X227329500Y-78595000D01*
%TO.N,/A12*%
X216805750Y-80195000D02*
X216154500Y-80195000D01*
X245364000Y-92329000D02*
X245491000Y-92456000D01*
X226314000Y-69469000D02*
X218186000Y-77597000D01*
X218186000Y-77597000D02*
X218186000Y-78814750D01*
X243713000Y-69469000D02*
X226314000Y-69469000D01*
X218186000Y-78814750D02*
X216805750Y-80195000D01*
X243777500Y-69404500D02*
X243713000Y-69469000D01*
X245491000Y-92456000D02*
X252603000Y-92456000D01*
%TO.N,/A7*%
X251079000Y-93726000D02*
X252603000Y-93726000D01*
X248783959Y-96021041D02*
X251079000Y-93726000D01*
X219338041Y-96021041D02*
X248783959Y-96021041D01*
X217112000Y-93795000D02*
X219338041Y-96021041D01*
X216154500Y-93795000D02*
X217112000Y-93795000D01*
%TO.N,/A6*%
X251095417Y-94996000D02*
X252603000Y-94996000D01*
X218821561Y-96520561D02*
X249570856Y-96520561D01*
X216896000Y-94595000D02*
X218821561Y-96520561D01*
X216154500Y-94595000D02*
X216896000Y-94595000D01*
X249570856Y-96520561D02*
X251095417Y-94996000D01*
%TO.N,/A5*%
X216154500Y-95395000D02*
X216934000Y-95395000D01*
X218567000Y-97028000D02*
X250317000Y-97028000D01*
X250317000Y-97028000D02*
X251079000Y-96266000D01*
X216934000Y-95395000D02*
X218567000Y-97028000D01*
X251079000Y-96266000D02*
X252603000Y-96266000D01*
%TO.N,/A4*%
X232791000Y-97790000D02*
X232918000Y-97917000D01*
X232619500Y-95250000D02*
X227474500Y-95250000D01*
X227474500Y-95250000D02*
X227329500Y-95395000D01*
X232664000Y-95294500D02*
X232619500Y-95250000D01*
X232918000Y-97917000D02*
X252222000Y-97917000D01*
%TO.N,/A3*%
X239649000Y-98806000D02*
X252603000Y-98806000D01*
X233934000Y-95123000D02*
X233406000Y-94595000D01*
X239649000Y-94996000D02*
X239522000Y-95123000D01*
X233406000Y-94595000D02*
X227329500Y-94595000D01*
X239522000Y-95123000D02*
X233934000Y-95123000D01*
%TO.N,/A2*%
X237744000Y-94234000D02*
X234315000Y-94234000D01*
X234315000Y-94234000D02*
X233876000Y-93795000D01*
X252603000Y-100076000D02*
X237998000Y-100076000D01*
X237998000Y-100076000D02*
X237871000Y-99949000D01*
X237871000Y-94107000D02*
X237744000Y-94234000D01*
X233876000Y-93795000D02*
X227329500Y-93795000D01*
%TO.N,/A1*%
X236474000Y-93472000D02*
X234579885Y-93472000D01*
X236474000Y-101219000D02*
X236601000Y-101346000D01*
X234579885Y-93472000D02*
X234102885Y-92995000D01*
X234102885Y-92995000D02*
X227329500Y-92995000D01*
X236601000Y-101346000D02*
X252603000Y-101346000D01*
%TO.N,/A0*%
X234009313Y-92195000D02*
X234524313Y-92710000D01*
X227329500Y-92195000D02*
X234009313Y-92195000D01*
X234524313Y-92710000D02*
X240538000Y-92710000D01*
X240665000Y-102616000D02*
X252603000Y-102616000D01*
%TO.N,/D0*%
X227980750Y-88995000D02*
X229917750Y-90932000D01*
X234569000Y-103886000D02*
X252603000Y-103886000D01*
X229917750Y-90932000D02*
X234442000Y-90932000D01*
X227329500Y-88995000D02*
X227980750Y-88995000D01*
%TO.N,/D1*%
X227980750Y-88195000D02*
X229955750Y-90170000D01*
X227329500Y-88195000D02*
X227980750Y-88195000D01*
X235712000Y-105156000D02*
X252603000Y-105156000D01*
X229955750Y-90170000D02*
X235458000Y-90170000D01*
X235458000Y-90170000D02*
X235458000Y-90297000D01*
%TO.N,/D2*%
X236928480Y-84401480D02*
X238887000Y-86360000D01*
X229416151Y-85795000D02*
X230809671Y-84401480D01*
X252603000Y-106426000D02*
X239014000Y-106426000D01*
X239014000Y-106426000D02*
X238887000Y-106299000D01*
X230809671Y-84401480D02*
X236928480Y-84401480D01*
X227329500Y-85795000D02*
X229416151Y-85795000D01*
%TO.N,/A17*%
X247835000Y-80195000D02*
X227329500Y-80195000D01*
X248666000Y-81026000D02*
X247835000Y-80195000D01*
%TO.N,/A18*%
X247048500Y-80995000D02*
X227329500Y-80995000D01*
X247904000Y-81850500D02*
X247048500Y-80995000D01*
%TO.N,/A19*%
X246126000Y-81788000D02*
X246119000Y-81795000D01*
X246119000Y-81795000D02*
X227329500Y-81795000D01*
D21*
%TO.N,+5V*%
X212963000Y-92183000D02*
X211077000Y-90297000D01*
X249682000Y-107696000D02*
X252603000Y-107696000D01*
X250317000Y-87503000D02*
X249174000Y-88646000D01*
X252222000Y-87503000D02*
X250317000Y-87503000D01*
X220091000Y-107696000D02*
X212963000Y-100568000D01*
X212963000Y-100568000D02*
X212963000Y-92183000D01*
X205232000Y-88260000D02*
X207269000Y-90297000D01*
X216154500Y-92195000D02*
X212975000Y-92195000D01*
X249682000Y-107696000D02*
X220091000Y-107696000D01*
X207269000Y-90297000D02*
X211077000Y-90297000D01*
D22*
%TO.N,/CE*%
X227366020Y-91431520D02*
X233952261Y-91431520D01*
X241235500Y-74655989D02*
X241342489Y-74549000D01*
X241342489Y-74549000D02*
X252476000Y-74549000D01*
X233952261Y-91431520D02*
X234468741Y-91948000D01*
X234468741Y-91948000D02*
X239776000Y-91948000D01*
%TO.N,/OE*%
X216154500Y-92995000D02*
X218790000Y-92995000D01*
X219964000Y-89836750D02*
X219964000Y-83693000D01*
X219964000Y-83693000D02*
X226568000Y-77089000D01*
X226568000Y-77089000D02*
X252476000Y-77089000D01*
X218790000Y-92995000D02*
X218821000Y-92964000D01*
%TO.N,/WE*%
X247650000Y-88392000D02*
X251206000Y-84836000D01*
X251206000Y-84836000D02*
X251603978Y-84836000D01*
X238697500Y-82550000D02*
X238652500Y-82595000D01*
X240665000Y-88392000D02*
X247650000Y-88392000D01*
X239903000Y-87630000D02*
X240665000Y-88392000D01*
X238652500Y-82595000D02*
X227329500Y-82595000D01*
%TD*%
M02*
