%TF.GenerationSoftware,KiCad,Pcbnew,(6.0.4-0)*%
%TF.CreationDate,2023-12-10T22:35:43+01:00*%
%TF.ProjectId,pcmcia-sram,70636d63-6961-42d7-9372-616d2e6b6963,rev?*%
%TF.SameCoordinates,Original*%
%TF.FileFunction,Copper,L2,Bot*%
%TF.FilePolarity,Positive*%
%FSLAX46Y46*%
G04 Gerber Fmt 4.6, Leading zero omitted, Abs format (unit mm)*
G04 Created by KiCad (PCBNEW (6.0.4-0)) date 2023-12-10 22:35:43*
%MOMM*%
%LPD*%
G01*
G04 APERTURE LIST*
%TA.AperFunction,SMDPad,CuDef*%
%ADD10R,2.400000X0.740000*%
%TD*%
%TA.AperFunction,ViaPad*%
%ADD11C,0.700000*%
%TD*%
%TA.AperFunction,Conductor*%
%ADD12C,0.500000*%
%TD*%
%TA.AperFunction,Conductor*%
%ADD13C,0.300000*%
%TD*%
G04 APERTURE END LIST*
D10*
%TO.P,J1,35,GND*%
%TO.N,GND*%
X252222000Y-67183000D03*
%TO.P,J1,36,_CD1*%
X252222000Y-68453000D03*
%TO.P,J1,37,D11*%
%TO.N,unconnected-(J1-Pad37)*%
X252222000Y-69723000D03*
%TO.P,J1,38,D12*%
%TO.N,unconnected-(J1-Pad38)*%
X252222000Y-70993000D03*
%TO.P,J1,39,D13*%
%TO.N,unconnected-(J1-Pad39)*%
X252222000Y-72263000D03*
%TO.P,J1,40,D14*%
%TO.N,unconnected-(J1-Pad40)*%
X252222000Y-73533000D03*
%TO.P,J1,41,D15*%
%TO.N,unconnected-(J1-Pad41)*%
X252222000Y-74803000D03*
%TO.P,J1,42,_CE2*%
%TO.N,unconnected-(J1-Pad42)*%
X252222000Y-76073000D03*
%TO.P,J1,43,_VS1*%
%TO.N,unconnected-(J1-Pad43)*%
X252222000Y-77343000D03*
%TO.P,J1,44,_IORD*%
%TO.N,unconnected-(J1-Pad44)*%
X252222000Y-78613000D03*
%TO.P,J1,45,_IOWR*%
%TO.N,unconnected-(J1-Pad45)*%
X252222000Y-79883000D03*
%TO.P,J1,46,A17*%
%TO.N,/A17*%
X252222000Y-81153000D03*
%TO.P,J1,47,A18*%
%TO.N,/A18*%
X252222000Y-82423000D03*
%TO.P,J1,48,A19*%
%TO.N,/A19*%
X252222000Y-83693000D03*
%TO.P,J1,49,A20*%
%TO.N,unconnected-(J1-Pad49)*%
X252222000Y-84963000D03*
%TO.P,J1,50,A21*%
%TO.N,unconnected-(J1-Pad50)*%
X252222000Y-86233000D03*
%TO.P,J1,51,VCC*%
%TO.N,+5V*%
X252222000Y-87503000D03*
%TO.P,J1,52,VPP2*%
%TO.N,unconnected-(J1-Pad52)*%
X252222000Y-88773000D03*
%TO.P,J1,53,A22*%
%TO.N,unconnected-(J1-Pad53)*%
X252222000Y-90043000D03*
%TO.P,J1,54,A23*%
%TO.N,unconnected-(J1-Pad54)*%
X252222000Y-91313000D03*
%TO.P,J1,55,A24*%
%TO.N,unconnected-(J1-Pad55)*%
X252222000Y-92583000D03*
%TO.P,J1,56,A25*%
%TO.N,unconnected-(J1-Pad56)*%
X252222000Y-93853000D03*
%TO.P,J1,57,_VS2*%
%TO.N,unconnected-(J1-Pad57)*%
X252222000Y-95123000D03*
%TO.P,J1,58,_RESET*%
%TO.N,unconnected-(J1-Pad58)*%
X252222000Y-96393000D03*
%TO.P,J1,59,_WAIT*%
%TO.N,unconnected-(J1-Pad59)*%
X252222000Y-97663000D03*
%TO.P,J1,60,_INTACK*%
%TO.N,unconnected-(J1-Pad60)*%
X252222000Y-98933000D03*
%TO.P,J1,61,_REG*%
%TO.N,unconnected-(J1-Pad61)*%
X252222000Y-100203000D03*
%TO.P,J1,62,BVD2/_SPKR*%
%TO.N,unconnected-(J1-Pad62)*%
X252222000Y-101473000D03*
%TO.P,J1,63,BVD1/_STSCHG*%
%TO.N,unconnected-(J1-Pad63)*%
X252222000Y-102743000D03*
%TO.P,J1,64,D8*%
%TO.N,unconnected-(J1-Pad64)*%
X252222000Y-104013000D03*
%TO.P,J1,65,D9*%
%TO.N,unconnected-(J1-Pad65)*%
X252222000Y-105283000D03*
%TO.P,J1,66,D10*%
%TO.N,unconnected-(J1-Pad66)*%
X252222000Y-106553000D03*
%TO.P,J1,67,_CD2*%
%TO.N,GND*%
X252222000Y-107823000D03*
%TO.P,J1,68,GND*%
X252267000Y-109093000D03*
%TD*%
D11*
%TO.N,GND*%
X250825000Y-108966000D03*
X209550000Y-92202000D03*
X250825000Y-67056000D03*
X207918500Y-88411500D03*
X179705000Y-78993000D03*
X179832000Y-97662000D03*
X236220000Y-85471000D03*
X232664000Y-85725000D03*
X211582000Y-88265000D03*
X168275000Y-79247000D03*
X168656000Y-97535000D03*
%TO.N,/D3*%
X240030000Y-67310000D03*
X239459500Y-83396602D03*
%TO.N,/A10*%
X249174000Y-75819000D03*
X247777000Y-70612000D03*
%TO.N,/A11*%
X245491000Y-69912500D03*
X246634000Y-78105000D03*
%TO.N,/A9*%
X238633000Y-78613000D03*
X237744000Y-71628000D03*
%TO.N,/A8*%
X250317000Y-79121000D03*
X250317000Y-80876989D03*
%TO.N,/A13*%
X243840000Y-82550000D03*
X242697000Y-68707000D03*
%TO.N,/A14*%
X242239122Y-87198878D03*
X241554000Y-68072000D03*
%TO.N,VCC*%
X217474253Y-86537253D03*
X225425000Y-87376000D03*
%TO.N,/A16*%
X237490000Y-79375000D03*
X238125000Y-89916000D03*
%TO.N,/A15*%
X237109000Y-91186000D03*
X235712000Y-78675500D03*
%TO.N,/A12*%
X243777500Y-69404500D03*
X245364000Y-92329000D03*
%TO.N,/A4*%
X232664000Y-95294500D03*
X232791000Y-97790000D03*
%TO.N,/A3*%
X239649000Y-98806000D03*
X239649000Y-94996000D03*
%TO.N,/A2*%
X237871000Y-94107000D03*
X237871000Y-99949000D03*
%TO.N,/A1*%
X236474000Y-93472000D03*
X236474000Y-101219000D03*
%TO.N,/A0*%
X240665000Y-102616000D03*
X240538000Y-92710000D03*
%TO.N,/D0*%
X234569000Y-103886000D03*
X234442000Y-90932000D03*
%TO.N,/D1*%
X235458000Y-90297000D03*
X235712000Y-105156000D03*
%TO.N,/D2*%
X238887000Y-86360000D03*
X238887000Y-106299000D03*
%TO.N,/A17*%
X248666000Y-81026000D03*
%TO.N,/A18*%
X247904000Y-81850500D03*
%TO.N,/A19*%
X246126000Y-81788000D03*
%TO.N,+5V*%
X249682000Y-107696000D03*
X249174000Y-88646000D03*
%TO.N,/CE*%
X241235500Y-74655989D03*
X239776000Y-91948000D03*
%TO.N,/OE*%
X218821000Y-92964000D03*
X219899500Y-89836750D03*
%TO.N,/WE*%
X239903000Y-87630000D03*
X238697500Y-82550000D03*
%TD*%
D12*
%TO.N,GND*%
X252603000Y-67056000D02*
X252603000Y-68326000D01*
X252648000Y-108966000D02*
X250825000Y-108966000D01*
X252603000Y-107696000D02*
X252603000Y-108921000D01*
X252603000Y-67056000D02*
X250825000Y-67056000D01*
D13*
%TO.N,/D3*%
X239649000Y-83207102D02*
X239649000Y-67691000D01*
X239649000Y-67691000D02*
X240030000Y-67310000D01*
X239459500Y-83396602D02*
X239649000Y-83207102D01*
%TO.N,/A10*%
X247777000Y-70612000D02*
X248412000Y-71247000D01*
X248412000Y-71247000D02*
X248412000Y-75057000D01*
X248412000Y-75057000D02*
X249174000Y-75819000D01*
%TO.N,/A11*%
X246634000Y-78105000D02*
X245872000Y-77343000D01*
X245872000Y-70293500D02*
X245491000Y-69912500D01*
X245872000Y-77343000D02*
X245872000Y-70293500D01*
%TO.N,/A9*%
X238125000Y-78105000D02*
X238125000Y-72009000D01*
X238633000Y-78613000D02*
X238125000Y-78105000D01*
X238125000Y-72009000D02*
X237744000Y-71628000D01*
%TO.N,/A8*%
X250317000Y-80876989D02*
X250317000Y-79121000D01*
%TO.N,/A13*%
X243078000Y-69088000D02*
X242697000Y-68707000D01*
X243840000Y-82550000D02*
X243078000Y-81788000D01*
X243078000Y-81788000D02*
X243078000Y-69088000D01*
%TO.N,/A14*%
X241935000Y-86894756D02*
X242239122Y-87198878D01*
X241935000Y-68453000D02*
X241935000Y-86894756D01*
X241554000Y-68072000D02*
X241935000Y-68453000D01*
D12*
%TO.N,VCC*%
X224536000Y-86487000D02*
X225425000Y-87376000D01*
X217524506Y-86487000D02*
X224536000Y-86487000D01*
X217474253Y-86537253D02*
X217524506Y-86487000D01*
D13*
%TO.N,/A16*%
X237744000Y-79629000D02*
X237744000Y-89535000D01*
X237490000Y-79375000D02*
X237744000Y-79629000D01*
X237744000Y-89535000D02*
X238125000Y-89916000D01*
%TO.N,/A15*%
X237109000Y-80072500D02*
X237109000Y-91186000D01*
X235712000Y-78675500D02*
X237109000Y-80072500D01*
%TO.N,/A12*%
X244602000Y-91567000D02*
X244602000Y-70229000D01*
X245364000Y-92329000D02*
X244602000Y-91567000D01*
X244602000Y-70229000D02*
X243777500Y-69404500D01*
%TO.N,/A4*%
X232664000Y-97663000D02*
X232791000Y-97790000D01*
X232664000Y-95294500D02*
X232664000Y-97663000D01*
%TO.N,/A3*%
X239649000Y-98806000D02*
X239649000Y-94996000D01*
%TO.N,/A2*%
X237871000Y-99949000D02*
X237871000Y-94107000D01*
%TO.N,/A1*%
X236474000Y-101219000D02*
X236474000Y-93472000D01*
%TO.N,/A0*%
X240538000Y-102489000D02*
X240665000Y-102616000D01*
X240538000Y-92710000D02*
X240538000Y-102489000D01*
%TO.N,/D0*%
X234442000Y-90932000D02*
X234442000Y-103759000D01*
X234442000Y-103759000D02*
X234569000Y-103886000D01*
%TO.N,/D1*%
X235458000Y-104902000D02*
X235712000Y-105156000D01*
X235458000Y-90297000D02*
X235458000Y-104902000D01*
%TO.N,/D2*%
X238887000Y-86360000D02*
X238887000Y-106299000D01*
%TO.N,/A17*%
X252052511Y-81576489D02*
X252603000Y-81026000D01*
X248666000Y-81026000D02*
X249216489Y-81576489D01*
X249216489Y-81576489D02*
X252052511Y-81576489D01*
%TO.N,/A18*%
X247904000Y-81850500D02*
X248349500Y-82296000D01*
X248349500Y-82296000D02*
X252603000Y-82296000D01*
%TO.N,/A19*%
X246126000Y-82042000D02*
X247650000Y-83566000D01*
X247650000Y-83566000D02*
X252603000Y-83566000D01*
X246126000Y-81788000D02*
X246126000Y-82042000D01*
D12*
%TO.N,+5V*%
X252222000Y-87503000D02*
X250317000Y-87503000D01*
X249174000Y-88646000D02*
X249174000Y-107188000D01*
X250317000Y-87503000D02*
X249174000Y-88646000D01*
X249174000Y-107188000D02*
X249682000Y-107696000D01*
D13*
%TO.N,/CE*%
X240665000Y-91059000D02*
X239776000Y-91948000D01*
X241235500Y-74655989D02*
X240665000Y-75226489D01*
X240665000Y-75226489D02*
X240665000Y-91059000D01*
%TO.N,/OE*%
X218821000Y-92964000D02*
X219899500Y-91885500D01*
X219899500Y-91885500D02*
X219899500Y-89836750D01*
%TO.N,/WE*%
X238697500Y-85181241D02*
X238697500Y-82550000D01*
X239903000Y-86386741D02*
X238697500Y-85181241D01*
X239903000Y-87630000D02*
X239903000Y-86386741D01*
%TD*%
%TA.AperFunction,Conductor*%
%TO.N,GND*%
G36*
X250670889Y-63266502D02*
G01*
X250717382Y-63320158D01*
X250727486Y-63390432D01*
X250697934Y-63455078D01*
X250666448Y-63491363D01*
X250663448Y-63496549D01*
X250663445Y-63496553D01*
X250649244Y-63521101D01*
X250560527Y-63674454D01*
X250491139Y-63874271D01*
X250460787Y-64083604D01*
X250470567Y-64294899D01*
X250520125Y-64500534D01*
X250522607Y-64505992D01*
X250522608Y-64505996D01*
X250566053Y-64601546D01*
X250607674Y-64693087D01*
X250730054Y-64865611D01*
X250882850Y-65011881D01*
X251060548Y-65126620D01*
X251066114Y-65128863D01*
X251251168Y-65203442D01*
X251251171Y-65203443D01*
X251256737Y-65205686D01*
X251464337Y-65246228D01*
X251469899Y-65246500D01*
X251625846Y-65246500D01*
X251783566Y-65231452D01*
X251986534Y-65171908D01*
X252070111Y-65128863D01*
X252169249Y-65077804D01*
X252169252Y-65077802D01*
X252174580Y-65075058D01*
X252340920Y-64944396D01*
X252344852Y-64939865D01*
X252344855Y-64939862D01*
X252475621Y-64789167D01*
X252479552Y-64784637D01*
X252482552Y-64779451D01*
X252482555Y-64779447D01*
X252582467Y-64606742D01*
X252585473Y-64601546D01*
X252654861Y-64401729D01*
X252685213Y-64192396D01*
X252675433Y-63981101D01*
X252625875Y-63775466D01*
X252582525Y-63680122D01*
X252540806Y-63588368D01*
X252538326Y-63582913D01*
X252440781Y-63445400D01*
X252417683Y-63378266D01*
X252434547Y-63309301D01*
X252486019Y-63260402D01*
X252543551Y-63246500D01*
X253238500Y-63246500D01*
X253306621Y-63266502D01*
X253353114Y-63320158D01*
X253364500Y-63372500D01*
X253364500Y-66179000D01*
X253344498Y-66247121D01*
X253290842Y-66293614D01*
X253238500Y-66305000D01*
X252494115Y-66305000D01*
X252478876Y-66309475D01*
X252477671Y-66310865D01*
X252476000Y-66318548D01*
X252476000Y-68581000D01*
X252455998Y-68649121D01*
X252402342Y-68695614D01*
X252350000Y-68707000D01*
X250532116Y-68707000D01*
X250516877Y-68711475D01*
X250515672Y-68712865D01*
X250514001Y-68720548D01*
X250514001Y-68867669D01*
X250514371Y-68874490D01*
X250519895Y-68925352D01*
X250523522Y-68940607D01*
X250561929Y-69043059D01*
X250567112Y-69113866D01*
X250561929Y-69131517D01*
X250523029Y-69235282D01*
X250523027Y-69235288D01*
X250520255Y-69242684D01*
X250513500Y-69304866D01*
X250513500Y-70141134D01*
X250520255Y-70203316D01*
X250523027Y-70210712D01*
X250523029Y-70210718D01*
X250561662Y-70313771D01*
X250566845Y-70384578D01*
X250561662Y-70402229D01*
X250523029Y-70505282D01*
X250523027Y-70505288D01*
X250520255Y-70512684D01*
X250513500Y-70574866D01*
X250513500Y-71411134D01*
X250520255Y-71473316D01*
X250523027Y-71480712D01*
X250523029Y-71480718D01*
X250561662Y-71583771D01*
X250566845Y-71654578D01*
X250561662Y-71672229D01*
X250523029Y-71775282D01*
X250523027Y-71775288D01*
X250520255Y-71782684D01*
X250513500Y-71844866D01*
X250513500Y-72681134D01*
X250520255Y-72743316D01*
X250523027Y-72750712D01*
X250523029Y-72750718D01*
X250561662Y-72853771D01*
X250566845Y-72924578D01*
X250561662Y-72942229D01*
X250523029Y-73045282D01*
X250523027Y-73045288D01*
X250520255Y-73052684D01*
X250513500Y-73114866D01*
X250513500Y-73951134D01*
X250520255Y-74013316D01*
X250523027Y-74020712D01*
X250523029Y-74020718D01*
X250561662Y-74123771D01*
X250566845Y-74194578D01*
X250561662Y-74212229D01*
X250523029Y-74315282D01*
X250523027Y-74315288D01*
X250520255Y-74322684D01*
X250513500Y-74384866D01*
X250513500Y-75221134D01*
X250520255Y-75283316D01*
X250523027Y-75290712D01*
X250523029Y-75290718D01*
X250561662Y-75393771D01*
X250566845Y-75464578D01*
X250561662Y-75482229D01*
X250523029Y-75585282D01*
X250523027Y-75585288D01*
X250520255Y-75592684D01*
X250513500Y-75654866D01*
X250513500Y-76491134D01*
X250520255Y-76553316D01*
X250523027Y-76560712D01*
X250523029Y-76560718D01*
X250561662Y-76663771D01*
X250566845Y-76734578D01*
X250561662Y-76752229D01*
X250523029Y-76855282D01*
X250523027Y-76855288D01*
X250520255Y-76862684D01*
X250513500Y-76924866D01*
X250513500Y-77761134D01*
X250520255Y-77823316D01*
X250523027Y-77830712D01*
X250523029Y-77830718D01*
X250561662Y-77933771D01*
X250566845Y-78004578D01*
X250561662Y-78022229D01*
X250523029Y-78125282D01*
X250523027Y-78125288D01*
X250520255Y-78132684D01*
X250518762Y-78146432D01*
X250518362Y-78150109D01*
X250491119Y-78215671D01*
X250432756Y-78256097D01*
X250393099Y-78262500D01*
X250226768Y-78262500D01*
X250220315Y-78263872D01*
X250220311Y-78263872D01*
X250154264Y-78277911D01*
X250050248Y-78300020D01*
X250044219Y-78302704D01*
X250044217Y-78302705D01*
X249891416Y-78370737D01*
X249891414Y-78370738D01*
X249885386Y-78373422D01*
X249880045Y-78377302D01*
X249880044Y-78377303D01*
X249744731Y-78475613D01*
X249744729Y-78475615D01*
X249739387Y-78479496D01*
X249734966Y-78484406D01*
X249734965Y-78484407D01*
X249624875Y-78606675D01*
X249618633Y-78613607D01*
X249528401Y-78769893D01*
X249472635Y-78941525D01*
X249453771Y-79121000D01*
X249472635Y-79300475D01*
X249474675Y-79306753D01*
X249474675Y-79306754D01*
X249479267Y-79320887D01*
X249528401Y-79472107D01*
X249531704Y-79477829D01*
X249531705Y-79477830D01*
X249541650Y-79495055D01*
X249618633Y-79628393D01*
X249626138Y-79636728D01*
X249656854Y-79700734D01*
X249658500Y-79721036D01*
X249658500Y-80276953D01*
X249638498Y-80345074D01*
X249626142Y-80361256D01*
X249618633Y-80369596D01*
X249567253Y-80458589D01*
X249553585Y-80482262D01*
X249502202Y-80531255D01*
X249432489Y-80544691D01*
X249366578Y-80518305D01*
X249350830Y-80503573D01*
X249243613Y-80384496D01*
X249230976Y-80375314D01*
X249102957Y-80282303D01*
X249102956Y-80282302D01*
X249097615Y-80278422D01*
X249091587Y-80275738D01*
X249091585Y-80275737D01*
X248938783Y-80207705D01*
X248938781Y-80207705D01*
X248932752Y-80205020D01*
X248844492Y-80186260D01*
X248762689Y-80168872D01*
X248762685Y-80168872D01*
X248756232Y-80167500D01*
X248575768Y-80167500D01*
X248569315Y-80168872D01*
X248569311Y-80168872D01*
X248487508Y-80186260D01*
X248399248Y-80205020D01*
X248393219Y-80207704D01*
X248393217Y-80207705D01*
X248240416Y-80275737D01*
X248240414Y-80275738D01*
X248234386Y-80278422D01*
X248229045Y-80282302D01*
X248229044Y-80282303D01*
X248093731Y-80380613D01*
X248093729Y-80380615D01*
X248088387Y-80384496D01*
X248083969Y-80389403D01*
X248083965Y-80389407D01*
X247981170Y-80503573D01*
X247967633Y-80518607D01*
X247877401Y-80674893D01*
X247821635Y-80846525D01*
X247820945Y-80853088D01*
X247820945Y-80853089D01*
X247815744Y-80902571D01*
X247788730Y-80968228D01*
X247730508Y-81008857D01*
X247716633Y-81012646D01*
X247637248Y-81029520D01*
X247616544Y-81038738D01*
X247478416Y-81100237D01*
X247478414Y-81100238D01*
X247472386Y-81102922D01*
X247467045Y-81106802D01*
X247467044Y-81106803D01*
X247331731Y-81205113D01*
X247331729Y-81205115D01*
X247326387Y-81208996D01*
X247321966Y-81213906D01*
X247321965Y-81213907D01*
X247280881Y-81259536D01*
X247205633Y-81343107D01*
X247140955Y-81455131D01*
X247089575Y-81504123D01*
X247019861Y-81517560D01*
X246953950Y-81491173D01*
X246916732Y-81443381D01*
X246916640Y-81443174D01*
X246914599Y-81436893D01*
X246824367Y-81280607D01*
X246771865Y-81222297D01*
X246708035Y-81151407D01*
X246708031Y-81151403D01*
X246703613Y-81146496D01*
X246648981Y-81106803D01*
X246562957Y-81044303D01*
X246562956Y-81044302D01*
X246557615Y-81040422D01*
X246551587Y-81037738D01*
X246551585Y-81037737D01*
X246398783Y-80969705D01*
X246398781Y-80969705D01*
X246392752Y-80967020D01*
X246304492Y-80948260D01*
X246222689Y-80930872D01*
X246222685Y-80930872D01*
X246216232Y-80929500D01*
X246035768Y-80929500D01*
X246029315Y-80930872D01*
X246029311Y-80930872D01*
X245947508Y-80948260D01*
X245859248Y-80967020D01*
X245853219Y-80969704D01*
X245853217Y-80969705D01*
X245700416Y-81037737D01*
X245700414Y-81037738D01*
X245694386Y-81040422D01*
X245689045Y-81044302D01*
X245689044Y-81044303D01*
X245553731Y-81142613D01*
X245553729Y-81142615D01*
X245548387Y-81146496D01*
X245480136Y-81222297D01*
X245419690Y-81259536D01*
X245348706Y-81258184D01*
X245289722Y-81218670D01*
X245261464Y-81153540D01*
X245260500Y-81137986D01*
X245260500Y-77966950D01*
X245280502Y-77898829D01*
X245334158Y-77852336D01*
X245404432Y-77842232D01*
X245469012Y-77871726D01*
X245475595Y-77877855D01*
X245747210Y-78149470D01*
X245781236Y-78211782D01*
X245783425Y-78225394D01*
X245785884Y-78248784D01*
X245789635Y-78284475D01*
X245791675Y-78290753D01*
X245791675Y-78290754D01*
X245802605Y-78324393D01*
X245845401Y-78456107D01*
X245848704Y-78461829D01*
X245848705Y-78461830D01*
X245868448Y-78496025D01*
X245935633Y-78612393D01*
X245940051Y-78617300D01*
X245940052Y-78617301D01*
X246049095Y-78738405D01*
X246056387Y-78746504D01*
X246061729Y-78750385D01*
X246061731Y-78750387D01*
X246197043Y-78848697D01*
X246202385Y-78852578D01*
X246208413Y-78855262D01*
X246208415Y-78855263D01*
X246361217Y-78923295D01*
X246367248Y-78925980D01*
X246455508Y-78944740D01*
X246537311Y-78962128D01*
X246537315Y-78962128D01*
X246543768Y-78963500D01*
X246724232Y-78963500D01*
X246730685Y-78962128D01*
X246730689Y-78962128D01*
X246812492Y-78944740D01*
X246900752Y-78925980D01*
X246906783Y-78923295D01*
X247059585Y-78855263D01*
X247059587Y-78855262D01*
X247065615Y-78852578D01*
X247070957Y-78848697D01*
X247206269Y-78750387D01*
X247206271Y-78750385D01*
X247211613Y-78746504D01*
X247218905Y-78738405D01*
X247327948Y-78617301D01*
X247327949Y-78617300D01*
X247332367Y-78612393D01*
X247399552Y-78496025D01*
X247419295Y-78461830D01*
X247419296Y-78461829D01*
X247422599Y-78456107D01*
X247465395Y-78324393D01*
X247476325Y-78290754D01*
X247476325Y-78290753D01*
X247478365Y-78284475D01*
X247487784Y-78194866D01*
X247496539Y-78111565D01*
X247497229Y-78105000D01*
X247485803Y-77996295D01*
X247479055Y-77932089D01*
X247479055Y-77932088D01*
X247478365Y-77925525D01*
X247422599Y-77753893D01*
X247332367Y-77597607D01*
X247211613Y-77463496D01*
X247065615Y-77357422D01*
X247059587Y-77354738D01*
X247059585Y-77354737D01*
X246906783Y-77286705D01*
X246906781Y-77286705D01*
X246900752Y-77284020D01*
X246773483Y-77256969D01*
X246738549Y-77249543D01*
X246675651Y-77215391D01*
X246567405Y-77107145D01*
X246533379Y-77044833D01*
X246530500Y-77018050D01*
X246530500Y-70612000D01*
X246913771Y-70612000D01*
X246932635Y-70791475D01*
X246934675Y-70797753D01*
X246934675Y-70797754D01*
X246937240Y-70805648D01*
X246988401Y-70963107D01*
X247078633Y-71119393D01*
X247083051Y-71124300D01*
X247083052Y-71124301D01*
X247152282Y-71201189D01*
X247199387Y-71253504D01*
X247204729Y-71257385D01*
X247204731Y-71257387D01*
X247340043Y-71355697D01*
X247345385Y-71359578D01*
X247351413Y-71362262D01*
X247351415Y-71362263D01*
X247461181Y-71411134D01*
X247510248Y-71432980D01*
X247592874Y-71450543D01*
X247653697Y-71463471D01*
X247716170Y-71497199D01*
X247750492Y-71559349D01*
X247753500Y-71586718D01*
X247753500Y-74974944D01*
X247752941Y-74986800D01*
X247751212Y-74994537D01*
X247751461Y-75002459D01*
X247753438Y-75065369D01*
X247753500Y-75069327D01*
X247753500Y-75098432D01*
X247754056Y-75102832D01*
X247754988Y-75114664D01*
X247756438Y-75160831D01*
X247758650Y-75168444D01*
X247758650Y-75168445D01*
X247762419Y-75181416D01*
X247766430Y-75200782D01*
X247769118Y-75222064D01*
X247772034Y-75229429D01*
X247772035Y-75229433D01*
X247786126Y-75265021D01*
X247789965Y-75276231D01*
X247802855Y-75320600D01*
X247813775Y-75339065D01*
X247822466Y-75356805D01*
X247830365Y-75376756D01*
X247842727Y-75393771D01*
X247857516Y-75414126D01*
X247864033Y-75424048D01*
X247883507Y-75456977D01*
X247883510Y-75456981D01*
X247887547Y-75463807D01*
X247902711Y-75478971D01*
X247915551Y-75494004D01*
X247928159Y-75511357D01*
X247963752Y-75540802D01*
X247972532Y-75548792D01*
X248287210Y-75863470D01*
X248321236Y-75925782D01*
X248323425Y-75939394D01*
X248329635Y-75998475D01*
X248385401Y-76170107D01*
X248475633Y-76326393D01*
X248596387Y-76460504D01*
X248601729Y-76464385D01*
X248601731Y-76464387D01*
X248724131Y-76553316D01*
X248742385Y-76566578D01*
X248748413Y-76569262D01*
X248748415Y-76569263D01*
X248901217Y-76637295D01*
X248907248Y-76639980D01*
X248995508Y-76658740D01*
X249077311Y-76676128D01*
X249077315Y-76676128D01*
X249083768Y-76677500D01*
X249264232Y-76677500D01*
X249270685Y-76676128D01*
X249270689Y-76676128D01*
X249352492Y-76658740D01*
X249440752Y-76639980D01*
X249446783Y-76637295D01*
X249599585Y-76569263D01*
X249599587Y-76569262D01*
X249605615Y-76566578D01*
X249623869Y-76553316D01*
X249746269Y-76464387D01*
X249746271Y-76464385D01*
X249751613Y-76460504D01*
X249872367Y-76326393D01*
X249962599Y-76170107D01*
X250018365Y-75998475D01*
X250037229Y-75819000D01*
X250020337Y-75658283D01*
X250019055Y-75646089D01*
X250019055Y-75646088D01*
X250018365Y-75639525D01*
X249962599Y-75467893D01*
X249872367Y-75311607D01*
X249853559Y-75290718D01*
X249756035Y-75182407D01*
X249756034Y-75182406D01*
X249751613Y-75177496D01*
X249739156Y-75168445D01*
X249610957Y-75075303D01*
X249610956Y-75075302D01*
X249605615Y-75071422D01*
X249599587Y-75068738D01*
X249599585Y-75068737D01*
X249446783Y-75000705D01*
X249446781Y-75000705D01*
X249440752Y-74998020D01*
X249313483Y-74970969D01*
X249278549Y-74963543D01*
X249215651Y-74929391D01*
X249107405Y-74821145D01*
X249073379Y-74758833D01*
X249070500Y-74732050D01*
X249070500Y-71329060D01*
X249071059Y-71317203D01*
X249072789Y-71309463D01*
X249070562Y-71238599D01*
X249070500Y-71234641D01*
X249070500Y-71205568D01*
X249069947Y-71201189D01*
X249069014Y-71189346D01*
X249067812Y-71151089D01*
X249067812Y-71151088D01*
X249067563Y-71143169D01*
X249061579Y-71122571D01*
X249057571Y-71103218D01*
X249057132Y-71099743D01*
X249054882Y-71081936D01*
X249037875Y-71038982D01*
X249034029Y-71027747D01*
X249023358Y-70991016D01*
X249023357Y-70991013D01*
X249021145Y-70983400D01*
X249010225Y-70964935D01*
X249001534Y-70947195D01*
X248993635Y-70927244D01*
X248966482Y-70889871D01*
X248959967Y-70879952D01*
X248940493Y-70847023D01*
X248940490Y-70847019D01*
X248936453Y-70840193D01*
X248921289Y-70825029D01*
X248908448Y-70809995D01*
X248900501Y-70799057D01*
X248895841Y-70792643D01*
X248860247Y-70763197D01*
X248851468Y-70755208D01*
X248663790Y-70567530D01*
X248629764Y-70505218D01*
X248627575Y-70491606D01*
X248622055Y-70439089D01*
X248622055Y-70439088D01*
X248621365Y-70432525D01*
X248565599Y-70260893D01*
X248475367Y-70104607D01*
X248354613Y-69970496D01*
X248307635Y-69936364D01*
X248213957Y-69868303D01*
X248213956Y-69868302D01*
X248208615Y-69864422D01*
X248202587Y-69861738D01*
X248202585Y-69861737D01*
X248049783Y-69793705D01*
X248049781Y-69793705D01*
X248043752Y-69791020D01*
X247955492Y-69772260D01*
X247873689Y-69754872D01*
X247873685Y-69754872D01*
X247867232Y-69753500D01*
X247686768Y-69753500D01*
X247680315Y-69754872D01*
X247680311Y-69754872D01*
X247598508Y-69772260D01*
X247510248Y-69791020D01*
X247504219Y-69793704D01*
X247504217Y-69793705D01*
X247351416Y-69861737D01*
X247351414Y-69861738D01*
X247345386Y-69864422D01*
X247340045Y-69868302D01*
X247340044Y-69868303D01*
X247204731Y-69966613D01*
X247204729Y-69966615D01*
X247199387Y-69970496D01*
X247078633Y-70104607D01*
X246988401Y-70260893D01*
X246932635Y-70432525D01*
X246913771Y-70612000D01*
X246530500Y-70612000D01*
X246530500Y-70375556D01*
X246531059Y-70363700D01*
X246531059Y-70363697D01*
X246532788Y-70355963D01*
X246530562Y-70285131D01*
X246530500Y-70281173D01*
X246530500Y-70252068D01*
X246529943Y-70247657D01*
X246529013Y-70235836D01*
X246527811Y-70197594D01*
X246527562Y-70189669D01*
X246521580Y-70169079D01*
X246517570Y-70149716D01*
X246515875Y-70136296D01*
X246515875Y-70136295D01*
X246514882Y-70128436D01*
X246511966Y-70121071D01*
X246511965Y-70121067D01*
X246497874Y-70085479D01*
X246494035Y-70074269D01*
X246481145Y-70029900D01*
X246470229Y-70011443D01*
X246461534Y-69993693D01*
X246453635Y-69973744D01*
X246426477Y-69936364D01*
X246419960Y-69926443D01*
X246396452Y-69886693D01*
X246381291Y-69871532D01*
X246368448Y-69856495D01*
X246364785Y-69851453D01*
X246341413Y-69790566D01*
X246336055Y-69739589D01*
X246336055Y-69739588D01*
X246335365Y-69733025D01*
X246279599Y-69561393D01*
X246189367Y-69405107D01*
X246068613Y-69270996D01*
X246005340Y-69225025D01*
X245927957Y-69168803D01*
X245927956Y-69168802D01*
X245922615Y-69164922D01*
X245916587Y-69162238D01*
X245916585Y-69162237D01*
X245763783Y-69094205D01*
X245763781Y-69094205D01*
X245757752Y-69091520D01*
X245669492Y-69072760D01*
X245587689Y-69055372D01*
X245587685Y-69055372D01*
X245581232Y-69054000D01*
X245400768Y-69054000D01*
X245394315Y-69055372D01*
X245394311Y-69055372D01*
X245312508Y-69072760D01*
X245224248Y-69091520D01*
X245218219Y-69094204D01*
X245218217Y-69094205D01*
X245065416Y-69162237D01*
X245065414Y-69162238D01*
X245059386Y-69164922D01*
X245054045Y-69168802D01*
X245054044Y-69168803D01*
X244918731Y-69267113D01*
X244918729Y-69267115D01*
X244913387Y-69270996D01*
X244908966Y-69275906D01*
X244908965Y-69275907D01*
X244846029Y-69345805D01*
X244785583Y-69383045D01*
X244714600Y-69381693D01*
X244655615Y-69342180D01*
X244627083Y-69274667D01*
X244622555Y-69231589D01*
X244622555Y-69231588D01*
X244621865Y-69225025D01*
X244566099Y-69053393D01*
X244475867Y-68897107D01*
X244437876Y-68854913D01*
X244359535Y-68767907D01*
X244359534Y-68767906D01*
X244355113Y-68762996D01*
X244296689Y-68720548D01*
X244214457Y-68660803D01*
X244214456Y-68660802D01*
X244209115Y-68656922D01*
X244203087Y-68654238D01*
X244203085Y-68654237D01*
X244050283Y-68586205D01*
X244050281Y-68586205D01*
X244044252Y-68583520D01*
X243955992Y-68564760D01*
X243874189Y-68547372D01*
X243874185Y-68547372D01*
X243867732Y-68546000D01*
X243687268Y-68546000D01*
X243680812Y-68547372D01*
X243680805Y-68547373D01*
X243667379Y-68550227D01*
X243596588Y-68544826D01*
X243539955Y-68502010D01*
X243521348Y-68465917D01*
X243487641Y-68362178D01*
X243485599Y-68355893D01*
X243395367Y-68199607D01*
X243378510Y-68180885D01*
X250514000Y-68180885D01*
X250518475Y-68196124D01*
X250519865Y-68197329D01*
X250527548Y-68199000D01*
X251949885Y-68199000D01*
X251965124Y-68194525D01*
X251966329Y-68193135D01*
X251968000Y-68185452D01*
X251968000Y-67455115D01*
X251963525Y-67439876D01*
X251962135Y-67438671D01*
X251954452Y-67437000D01*
X250532116Y-67437000D01*
X250516877Y-67441475D01*
X250515672Y-67442865D01*
X250514001Y-67450548D01*
X250514001Y-67597669D01*
X250514371Y-67604490D01*
X250519895Y-67655352D01*
X250523522Y-67670606D01*
X250562196Y-67773771D01*
X250567379Y-67844578D01*
X250562196Y-67862229D01*
X250523522Y-67965391D01*
X250519895Y-67980649D01*
X250514369Y-68031514D01*
X250514000Y-68038328D01*
X250514000Y-68180885D01*
X243378510Y-68180885D01*
X243274613Y-68065496D01*
X243267411Y-68060263D01*
X243133957Y-67963303D01*
X243133956Y-67963302D01*
X243128615Y-67959422D01*
X243122587Y-67956738D01*
X243122585Y-67956737D01*
X242969783Y-67888705D01*
X242969781Y-67888705D01*
X242963752Y-67886020D01*
X242851823Y-67862229D01*
X242793689Y-67849872D01*
X242793685Y-67849872D01*
X242787232Y-67848500D01*
X242606768Y-67848500D01*
X242600315Y-67849872D01*
X242600311Y-67849872D01*
X242546076Y-67861400D01*
X242509419Y-67869192D01*
X242438629Y-67863790D01*
X242381997Y-67820973D01*
X242363390Y-67784881D01*
X242344641Y-67727178D01*
X242342599Y-67720893D01*
X242317860Y-67678043D01*
X242301074Y-67648969D01*
X242252367Y-67564607D01*
X242131613Y-67430496D01*
X242083494Y-67395535D01*
X241990957Y-67328303D01*
X241990956Y-67328302D01*
X241985615Y-67324422D01*
X241979587Y-67321738D01*
X241979585Y-67321737D01*
X241826783Y-67253705D01*
X241826781Y-67253705D01*
X241820752Y-67251020D01*
X241732492Y-67232260D01*
X241650689Y-67214872D01*
X241650685Y-67214872D01*
X241644232Y-67213500D01*
X241463768Y-67213500D01*
X241457315Y-67214872D01*
X241457311Y-67214872D01*
X241375508Y-67232260D01*
X241287248Y-67251020D01*
X241281219Y-67253704D01*
X241281217Y-67253705D01*
X241128416Y-67321737D01*
X241128414Y-67321738D01*
X241122386Y-67324422D01*
X241087452Y-67349803D01*
X241020587Y-67373660D01*
X240951436Y-67357580D01*
X240901955Y-67306667D01*
X240888083Y-67261037D01*
X240875055Y-67137089D01*
X240875055Y-67137088D01*
X240874365Y-67130525D01*
X240818599Y-66958893D01*
X240800376Y-66927329D01*
X240790882Y-66910885D01*
X250514000Y-66910885D01*
X250518475Y-66926124D01*
X250519865Y-66927329D01*
X250527548Y-66929000D01*
X251949885Y-66929000D01*
X251965124Y-66924525D01*
X251966329Y-66923135D01*
X251968000Y-66915452D01*
X251968000Y-66323116D01*
X251963525Y-66307877D01*
X251962135Y-66306672D01*
X251954452Y-66305001D01*
X250977331Y-66305001D01*
X250970510Y-66305371D01*
X250919648Y-66310895D01*
X250904396Y-66314521D01*
X250783946Y-66359676D01*
X250768351Y-66368214D01*
X250666276Y-66444715D01*
X250653715Y-66457276D01*
X250577214Y-66559351D01*
X250568676Y-66574946D01*
X250523522Y-66695394D01*
X250519895Y-66710649D01*
X250514369Y-66761514D01*
X250514000Y-66768328D01*
X250514000Y-66910885D01*
X240790882Y-66910885D01*
X240731668Y-66808325D01*
X240728367Y-66802607D01*
X240607613Y-66668496D01*
X240461615Y-66562422D01*
X240455587Y-66559738D01*
X240455585Y-66559737D01*
X240302783Y-66491705D01*
X240302781Y-66491705D01*
X240296752Y-66489020D01*
X240208492Y-66470260D01*
X240126689Y-66452872D01*
X240126685Y-66452872D01*
X240120232Y-66451500D01*
X239939768Y-66451500D01*
X239933315Y-66452872D01*
X239933311Y-66452872D01*
X239851508Y-66470260D01*
X239763248Y-66489020D01*
X239757219Y-66491704D01*
X239757217Y-66491705D01*
X239604416Y-66559737D01*
X239604414Y-66559738D01*
X239598386Y-66562422D01*
X239593045Y-66566302D01*
X239593044Y-66566303D01*
X239457731Y-66664613D01*
X239457729Y-66664615D01*
X239452387Y-66668496D01*
X239331633Y-66802607D01*
X239328332Y-66808325D01*
X239259625Y-66927329D01*
X239241401Y-66958893D01*
X239185635Y-67130525D01*
X239184945Y-67137086D01*
X239184945Y-67137088D01*
X239179240Y-67191365D01*
X239153493Y-67255415D01*
X239151348Y-67258179D01*
X239143648Y-67267195D01*
X239112028Y-67300867D01*
X239108207Y-67307818D01*
X239108206Y-67307819D01*
X239101697Y-67319658D01*
X239090843Y-67336182D01*
X239083018Y-67346271D01*
X239077696Y-67353132D01*
X239074549Y-67360404D01*
X239074548Y-67360406D01*
X239059346Y-67395535D01*
X239054124Y-67406195D01*
X239031876Y-67446663D01*
X239026541Y-67467441D01*
X239020142Y-67486131D01*
X239011620Y-67505824D01*
X239010380Y-67513655D01*
X239004394Y-67551448D01*
X239001987Y-67563071D01*
X238990500Y-67607812D01*
X238990500Y-67629259D01*
X238988949Y-67648969D01*
X238985594Y-67670152D01*
X238986340Y-67678043D01*
X238989941Y-67716138D01*
X238990500Y-67727996D01*
X238990500Y-71742459D01*
X238970498Y-71810580D01*
X238916842Y-71857073D01*
X238846568Y-71867177D01*
X238781988Y-71837683D01*
X238743503Y-71777611D01*
X238736356Y-71753012D01*
X238734145Y-71745400D01*
X238723229Y-71726943D01*
X238714534Y-71709193D01*
X238706635Y-71689244D01*
X238694273Y-71672229D01*
X238679477Y-71651864D01*
X238672960Y-71641943D01*
X238664714Y-71628000D01*
X238649452Y-71602193D01*
X238634291Y-71587032D01*
X238621448Y-71571995D01*
X238617785Y-71566953D01*
X238594413Y-71506066D01*
X238589055Y-71455089D01*
X238589055Y-71455088D01*
X238588365Y-71448525D01*
X238532599Y-71276893D01*
X238442367Y-71120607D01*
X238436126Y-71113675D01*
X238326035Y-70991407D01*
X238326034Y-70991406D01*
X238321613Y-70986496D01*
X238280771Y-70956822D01*
X238180957Y-70884303D01*
X238180956Y-70884302D01*
X238175615Y-70880422D01*
X238169587Y-70877738D01*
X238169585Y-70877737D01*
X238016783Y-70809705D01*
X238016781Y-70809705D01*
X238010752Y-70807020D01*
X237906736Y-70784911D01*
X237840689Y-70770872D01*
X237840685Y-70770872D01*
X237834232Y-70769500D01*
X237653768Y-70769500D01*
X237647315Y-70770872D01*
X237647311Y-70770872D01*
X237581264Y-70784911D01*
X237477248Y-70807020D01*
X237471219Y-70809704D01*
X237471217Y-70809705D01*
X237318416Y-70877737D01*
X237318414Y-70877738D01*
X237312386Y-70880422D01*
X237307045Y-70884302D01*
X237307044Y-70884303D01*
X237171731Y-70982613D01*
X237171729Y-70982615D01*
X237166387Y-70986496D01*
X237161966Y-70991406D01*
X237161965Y-70991407D01*
X237051875Y-71113675D01*
X237045633Y-71120607D01*
X236955401Y-71276893D01*
X236899635Y-71448525D01*
X236880771Y-71628000D01*
X236881461Y-71634565D01*
X236893111Y-71745400D01*
X236899635Y-71807475D01*
X236955401Y-71979107D01*
X237045633Y-72135393D01*
X237166387Y-72269504D01*
X237312385Y-72375578D01*
X237318413Y-72378262D01*
X237318415Y-72378263D01*
X237345312Y-72390238D01*
X237391750Y-72410914D01*
X237445845Y-72456893D01*
X237466500Y-72526020D01*
X237466500Y-78022944D01*
X237465941Y-78034800D01*
X237464212Y-78042537D01*
X237464461Y-78050459D01*
X237466438Y-78113369D01*
X237466500Y-78117327D01*
X237466500Y-78146432D01*
X237467056Y-78150832D01*
X237467988Y-78162664D01*
X237469438Y-78208831D01*
X237471650Y-78216444D01*
X237471650Y-78216445D01*
X237475419Y-78229416D01*
X237479430Y-78248782D01*
X237482118Y-78270064D01*
X237485034Y-78277429D01*
X237485035Y-78277433D01*
X237499126Y-78313021D01*
X237502967Y-78324237D01*
X237512265Y-78356243D01*
X237512062Y-78427237D01*
X237473508Y-78486853D01*
X237404908Y-78516500D01*
X237399768Y-78516500D01*
X237393315Y-78517872D01*
X237393311Y-78517872D01*
X237311508Y-78535260D01*
X237223248Y-78554020D01*
X237217219Y-78556704D01*
X237217217Y-78556705D01*
X237064416Y-78624737D01*
X237064414Y-78624738D01*
X237058386Y-78627422D01*
X237053045Y-78631302D01*
X237053044Y-78631303D01*
X236917731Y-78729613D01*
X236917729Y-78729615D01*
X236912387Y-78733496D01*
X236901196Y-78745925D01*
X236840749Y-78783163D01*
X236769765Y-78781809D01*
X236718467Y-78750707D01*
X236598790Y-78631030D01*
X236564764Y-78568718D01*
X236562575Y-78555106D01*
X236557055Y-78502589D01*
X236557055Y-78502588D01*
X236556365Y-78496025D01*
X236550995Y-78479496D01*
X236502641Y-78330678D01*
X236500599Y-78324393D01*
X236494034Y-78313021D01*
X236433879Y-78208831D01*
X236410367Y-78168107D01*
X236400121Y-78156727D01*
X236294035Y-78038907D01*
X236294034Y-78038906D01*
X236289613Y-78033996D01*
X236274402Y-78022944D01*
X236148957Y-77931803D01*
X236148956Y-77931802D01*
X236143615Y-77927922D01*
X236137587Y-77925238D01*
X236137585Y-77925237D01*
X235984783Y-77857205D01*
X235984781Y-77857205D01*
X235978752Y-77854520D01*
X235890492Y-77835760D01*
X235808689Y-77818372D01*
X235808685Y-77818372D01*
X235802232Y-77817000D01*
X235621768Y-77817000D01*
X235615315Y-77818372D01*
X235615311Y-77818372D01*
X235533508Y-77835760D01*
X235445248Y-77854520D01*
X235439219Y-77857204D01*
X235439217Y-77857205D01*
X235286416Y-77925237D01*
X235286414Y-77925238D01*
X235280386Y-77927922D01*
X235275045Y-77931802D01*
X235275044Y-77931803D01*
X235139731Y-78030113D01*
X235139729Y-78030115D01*
X235134387Y-78033996D01*
X235129966Y-78038906D01*
X235129965Y-78038907D01*
X235023880Y-78156727D01*
X235013633Y-78168107D01*
X234990121Y-78208831D01*
X234929967Y-78313021D01*
X234923401Y-78324393D01*
X234921359Y-78330678D01*
X234873006Y-78479496D01*
X234867635Y-78496025D01*
X234866945Y-78502588D01*
X234866945Y-78502589D01*
X234853824Y-78627422D01*
X234848771Y-78675500D01*
X234867635Y-78854975D01*
X234923401Y-79026607D01*
X235013633Y-79182893D01*
X235134387Y-79317004D01*
X235280385Y-79423078D01*
X235286413Y-79425762D01*
X235286415Y-79425763D01*
X235439217Y-79493795D01*
X235445248Y-79496480D01*
X235540640Y-79516756D01*
X235607450Y-79530957D01*
X235670348Y-79565108D01*
X236413595Y-80308354D01*
X236447620Y-80370667D01*
X236450500Y-80397450D01*
X236450500Y-89828822D01*
X236430498Y-89896943D01*
X236376842Y-89943436D01*
X236306568Y-89953540D01*
X236241988Y-89924046D01*
X236215381Y-89891822D01*
X236159668Y-89795325D01*
X236156367Y-89789607D01*
X236035613Y-89655496D01*
X236029420Y-89650996D01*
X235894957Y-89553303D01*
X235894956Y-89553302D01*
X235889615Y-89549422D01*
X235883587Y-89546738D01*
X235883585Y-89546737D01*
X235730783Y-89478705D01*
X235730781Y-89478705D01*
X235724752Y-89476020D01*
X235612823Y-89452229D01*
X235554689Y-89439872D01*
X235554685Y-89439872D01*
X235548232Y-89438500D01*
X235367768Y-89438500D01*
X235361315Y-89439872D01*
X235361311Y-89439872D01*
X235303177Y-89452229D01*
X235191248Y-89476020D01*
X235185219Y-89478704D01*
X235185217Y-89478705D01*
X235032416Y-89546737D01*
X235032414Y-89546738D01*
X235026386Y-89549422D01*
X235021045Y-89553302D01*
X235021044Y-89553303D01*
X234885731Y-89651613D01*
X234885729Y-89651615D01*
X234880387Y-89655496D01*
X234759633Y-89789607D01*
X234669401Y-89945893D01*
X234656091Y-89986858D01*
X234616018Y-90045464D01*
X234550622Y-90073102D01*
X234532232Y-90073190D01*
X234532232Y-90073500D01*
X234351768Y-90073500D01*
X234345315Y-90074872D01*
X234345311Y-90074872D01*
X234263508Y-90092260D01*
X234175248Y-90111020D01*
X234169219Y-90113704D01*
X234169217Y-90113705D01*
X234016416Y-90181737D01*
X234016414Y-90181738D01*
X234010386Y-90184422D01*
X234005045Y-90188302D01*
X234005044Y-90188303D01*
X233869731Y-90286613D01*
X233869729Y-90286615D01*
X233864387Y-90290496D01*
X233859966Y-90295406D01*
X233859965Y-90295407D01*
X233821232Y-90338425D01*
X233743633Y-90424607D01*
X233653401Y-90580893D01*
X233597635Y-90752525D01*
X233596945Y-90759088D01*
X233596945Y-90759089D01*
X233585449Y-90868468D01*
X233578771Y-90932000D01*
X233597635Y-91111475D01*
X233599675Y-91117753D01*
X233599675Y-91117754D01*
X233619716Y-91179435D01*
X233653401Y-91283107D01*
X233656704Y-91288829D01*
X233656705Y-91288830D01*
X233660648Y-91295660D01*
X233743633Y-91439393D01*
X233751138Y-91447728D01*
X233781854Y-91511734D01*
X233783500Y-91532036D01*
X233783500Y-97321822D01*
X233763498Y-97389943D01*
X233709842Y-97436436D01*
X233639568Y-97446540D01*
X233574988Y-97417046D01*
X233548381Y-97384822D01*
X233492668Y-97288325D01*
X233489367Y-97282607D01*
X233368613Y-97148496D01*
X233364010Y-97145151D01*
X233326949Y-97084994D01*
X233322500Y-97051806D01*
X233322500Y-95894536D01*
X233342502Y-95826415D01*
X233354858Y-95810233D01*
X233362367Y-95801893D01*
X233452599Y-95645607D01*
X233508365Y-95473975D01*
X233527229Y-95294500D01*
X233508365Y-95115025D01*
X233452599Y-94943393D01*
X233362367Y-94787107D01*
X233241613Y-94652996D01*
X233095615Y-94546922D01*
X233089587Y-94544238D01*
X233089585Y-94544237D01*
X232936783Y-94476205D01*
X232936781Y-94476205D01*
X232930752Y-94473520D01*
X232842492Y-94454760D01*
X232760689Y-94437372D01*
X232760685Y-94437372D01*
X232754232Y-94436000D01*
X232573768Y-94436000D01*
X232567315Y-94437372D01*
X232567311Y-94437372D01*
X232485508Y-94454760D01*
X232397248Y-94473520D01*
X232391219Y-94476204D01*
X232391217Y-94476205D01*
X232238416Y-94544237D01*
X232238414Y-94544238D01*
X232232386Y-94546922D01*
X232227045Y-94550802D01*
X232227044Y-94550803D01*
X232091731Y-94649113D01*
X232091729Y-94649115D01*
X232086387Y-94652996D01*
X231965633Y-94787107D01*
X231875401Y-94943393D01*
X231819635Y-95115025D01*
X231800771Y-95294500D01*
X231819635Y-95473975D01*
X231875401Y-95645607D01*
X231965633Y-95801893D01*
X231973138Y-95810228D01*
X232003854Y-95874234D01*
X232005500Y-95894536D01*
X232005500Y-97409399D01*
X231999333Y-97448335D01*
X231946635Y-97610525D01*
X231927771Y-97790000D01*
X231946635Y-97969475D01*
X232002401Y-98141107D01*
X232092633Y-98297393D01*
X232213387Y-98431504D01*
X232218729Y-98435385D01*
X232218731Y-98435387D01*
X232354043Y-98533697D01*
X232359385Y-98537578D01*
X232365413Y-98540262D01*
X232365415Y-98540263D01*
X232518217Y-98608295D01*
X232524248Y-98610980D01*
X232612508Y-98629740D01*
X232694311Y-98647128D01*
X232694315Y-98647128D01*
X232700768Y-98648500D01*
X232881232Y-98648500D01*
X232887685Y-98647128D01*
X232887689Y-98647128D01*
X232969492Y-98629740D01*
X233057752Y-98610980D01*
X233063783Y-98608295D01*
X233216585Y-98540263D01*
X233216587Y-98540262D01*
X233222615Y-98537578D01*
X233227957Y-98533697D01*
X233363269Y-98435387D01*
X233363271Y-98435385D01*
X233368613Y-98431504D01*
X233489367Y-98297393D01*
X233548381Y-98195178D01*
X233599764Y-98146185D01*
X233669477Y-98132749D01*
X233735388Y-98159135D01*
X233776570Y-98216968D01*
X233783500Y-98258178D01*
X233783500Y-103505399D01*
X233777333Y-103544335D01*
X233759805Y-103598283D01*
X233724635Y-103706525D01*
X233705771Y-103886000D01*
X233724635Y-104065475D01*
X233780401Y-104237107D01*
X233870633Y-104393393D01*
X233875051Y-104398300D01*
X233875052Y-104398301D01*
X233984096Y-104519407D01*
X233991387Y-104527504D01*
X234137385Y-104633578D01*
X234143413Y-104636262D01*
X234143415Y-104636263D01*
X234296217Y-104704295D01*
X234302248Y-104706980D01*
X234390508Y-104725740D01*
X234472311Y-104743128D01*
X234472315Y-104743128D01*
X234478768Y-104744500D01*
X234659232Y-104744500D01*
X234660753Y-104744177D01*
X234728751Y-104756614D01*
X234780596Y-104805117D01*
X234798018Y-104865192D01*
X234799438Y-104910369D01*
X234799500Y-104914327D01*
X234799500Y-104943432D01*
X234800056Y-104947832D01*
X234800988Y-104959664D01*
X234802438Y-105005831D01*
X234804650Y-105013444D01*
X234804650Y-105013445D01*
X234808419Y-105026416D01*
X234812430Y-105045782D01*
X234815118Y-105067064D01*
X234818034Y-105074429D01*
X234818035Y-105074433D01*
X234832126Y-105110021D01*
X234835968Y-105121244D01*
X234847168Y-105159794D01*
X234851479Y-105181766D01*
X234867635Y-105335475D01*
X234923401Y-105507107D01*
X235013633Y-105663393D01*
X235018051Y-105668300D01*
X235018052Y-105668301D01*
X235129077Y-105791607D01*
X235134387Y-105797504D01*
X235280385Y-105903578D01*
X235286413Y-105906262D01*
X235286415Y-105906263D01*
X235439217Y-105974295D01*
X235445248Y-105976980D01*
X235533508Y-105995740D01*
X235615311Y-106013128D01*
X235615315Y-106013128D01*
X235621768Y-106014500D01*
X235802232Y-106014500D01*
X235808685Y-106013128D01*
X235808689Y-106013128D01*
X235890492Y-105995740D01*
X235978752Y-105976980D01*
X235984783Y-105974295D01*
X236137585Y-105906263D01*
X236137587Y-105906262D01*
X236143615Y-105903578D01*
X236289613Y-105797504D01*
X236294923Y-105791607D01*
X236405948Y-105668301D01*
X236405949Y-105668300D01*
X236410367Y-105663393D01*
X236500599Y-105507107D01*
X236556365Y-105335475D01*
X236575229Y-105156000D01*
X236556365Y-104976525D01*
X236500599Y-104804893D01*
X236410367Y-104648607D01*
X236399253Y-104636263D01*
X236294035Y-104519407D01*
X236294034Y-104519406D01*
X236289613Y-104514496D01*
X236270650Y-104500718D01*
X236168439Y-104426458D01*
X236125085Y-104370236D01*
X236116500Y-104324522D01*
X236116500Y-102176288D01*
X236136502Y-102108167D01*
X236190158Y-102061674D01*
X236260432Y-102051570D01*
X236268691Y-102053040D01*
X236303791Y-102060501D01*
X236377311Y-102076128D01*
X236377315Y-102076128D01*
X236383768Y-102077500D01*
X236564232Y-102077500D01*
X236570685Y-102076128D01*
X236570689Y-102076128D01*
X236652492Y-102058740D01*
X236740752Y-102039980D01*
X236876801Y-101979407D01*
X236899585Y-101969263D01*
X236899587Y-101969262D01*
X236905615Y-101966578D01*
X236923869Y-101953316D01*
X237046269Y-101864387D01*
X237046271Y-101864385D01*
X237051613Y-101860504D01*
X237172367Y-101726393D01*
X237262599Y-101570107D01*
X237318365Y-101398475D01*
X237337229Y-101219000D01*
X237320337Y-101058283D01*
X237319055Y-101046089D01*
X237319055Y-101046088D01*
X237318365Y-101039525D01*
X237262599Y-100867893D01*
X237259295Y-100862170D01*
X237256611Y-100856142D01*
X237258223Y-100855424D01*
X237243534Y-100794860D01*
X237266758Y-100727769D01*
X237322568Y-100683885D01*
X237393244Y-100677140D01*
X237432393Y-100691744D01*
X237434042Y-100692696D01*
X237439385Y-100696578D01*
X237604248Y-100769980D01*
X237691111Y-100788443D01*
X237774311Y-100806128D01*
X237774315Y-100806128D01*
X237780768Y-100807500D01*
X237961232Y-100807500D01*
X237967685Y-100806128D01*
X237967689Y-100806128D01*
X238050889Y-100788443D01*
X238076304Y-100783041D01*
X238147094Y-100788443D01*
X238203727Y-100831260D01*
X238228220Y-100897898D01*
X238228500Y-100906288D01*
X238228500Y-105698964D01*
X238208498Y-105767085D01*
X238196142Y-105783267D01*
X238188633Y-105791607D01*
X238098401Y-105947893D01*
X238042635Y-106119525D01*
X238041945Y-106126088D01*
X238041945Y-106126089D01*
X238040663Y-106138283D01*
X238023771Y-106299000D01*
X238042635Y-106478475D01*
X238098401Y-106650107D01*
X238188633Y-106806393D01*
X238309387Y-106940504D01*
X238314729Y-106944385D01*
X238314731Y-106944387D01*
X238389584Y-106998771D01*
X238455385Y-107046578D01*
X238461413Y-107049262D01*
X238461415Y-107049263D01*
X238611210Y-107115956D01*
X238620248Y-107119980D01*
X238706452Y-107138303D01*
X238790311Y-107156128D01*
X238790315Y-107156128D01*
X238796768Y-107157500D01*
X238977232Y-107157500D01*
X238983685Y-107156128D01*
X238983689Y-107156128D01*
X239067548Y-107138303D01*
X239153752Y-107119980D01*
X239162790Y-107115956D01*
X239312585Y-107049263D01*
X239312587Y-107049262D01*
X239318615Y-107046578D01*
X239384416Y-106998771D01*
X239459269Y-106944387D01*
X239459271Y-106944385D01*
X239464613Y-106940504D01*
X239585367Y-106806393D01*
X239675599Y-106650107D01*
X239731365Y-106478475D01*
X239750229Y-106299000D01*
X239733337Y-106138283D01*
X239732055Y-106126089D01*
X239732055Y-106126088D01*
X239731365Y-106119525D01*
X239675599Y-105947893D01*
X239585367Y-105791607D01*
X239577862Y-105783272D01*
X239547146Y-105719266D01*
X239545500Y-105698964D01*
X239545500Y-99790500D01*
X239565502Y-99722379D01*
X239619158Y-99675886D01*
X239671500Y-99664500D01*
X239739232Y-99664500D01*
X239741788Y-99663957D01*
X239810173Y-99676466D01*
X239862017Y-99724970D01*
X239879500Y-99789001D01*
X239879500Y-102235399D01*
X239873333Y-102274335D01*
X239855805Y-102328283D01*
X239820635Y-102436525D01*
X239801771Y-102616000D01*
X239820635Y-102795475D01*
X239876401Y-102967107D01*
X239966633Y-103123393D01*
X240087387Y-103257504D01*
X240233385Y-103363578D01*
X240239413Y-103366262D01*
X240239415Y-103366263D01*
X240392217Y-103434295D01*
X240398248Y-103436980D01*
X240486508Y-103455740D01*
X240568311Y-103473128D01*
X240568315Y-103473128D01*
X240574768Y-103474500D01*
X240755232Y-103474500D01*
X240761685Y-103473128D01*
X240761689Y-103473128D01*
X240843492Y-103455740D01*
X240931752Y-103436980D01*
X240937783Y-103434295D01*
X241090585Y-103366263D01*
X241090587Y-103366262D01*
X241096615Y-103363578D01*
X241242613Y-103257504D01*
X241363367Y-103123393D01*
X241453599Y-102967107D01*
X241509365Y-102795475D01*
X241528229Y-102616000D01*
X241509365Y-102436525D01*
X241453599Y-102264893D01*
X241363367Y-102108607D01*
X241321109Y-102061674D01*
X241247035Y-101979407D01*
X241247034Y-101979406D01*
X241242613Y-101974496D01*
X241238010Y-101971151D01*
X241200949Y-101910994D01*
X241196500Y-101877806D01*
X241196500Y-93310036D01*
X241216502Y-93241915D01*
X241228858Y-93225733D01*
X241236367Y-93217393D01*
X241317667Y-93076578D01*
X241323295Y-93066830D01*
X241323296Y-93066829D01*
X241326599Y-93061107D01*
X241382365Y-92889475D01*
X241401229Y-92710000D01*
X241382365Y-92530525D01*
X241326599Y-92358893D01*
X241317885Y-92343799D01*
X241244343Y-92216422D01*
X241236367Y-92202607D01*
X241152143Y-92109066D01*
X241120035Y-92073407D01*
X241120034Y-92073406D01*
X241115613Y-92068496D01*
X241107840Y-92062848D01*
X240974957Y-91966303D01*
X240974956Y-91966302D01*
X240969615Y-91962422D01*
X240963582Y-91959736D01*
X240963577Y-91959733D01*
X240945585Y-91951722D01*
X240891489Y-91905742D01*
X240870840Y-91837815D01*
X240890193Y-91769507D01*
X240907739Y-91747521D01*
X241072605Y-91582655D01*
X241081385Y-91574665D01*
X241081387Y-91574663D01*
X241088080Y-91570416D01*
X241136605Y-91518742D01*
X241139359Y-91515901D01*
X241159927Y-91495333D01*
X241162647Y-91491826D01*
X241170353Y-91482804D01*
X241196544Y-91454913D01*
X241201972Y-91449133D01*
X241205794Y-91442181D01*
X241212303Y-91430342D01*
X241223157Y-91413818D01*
X241231445Y-91403132D01*
X241236304Y-91396868D01*
X241249889Y-91365475D01*
X241254654Y-91354465D01*
X241259876Y-91343805D01*
X241278305Y-91310284D01*
X241278306Y-91310282D01*
X241282124Y-91303337D01*
X241287459Y-91282559D01*
X241293858Y-91263869D01*
X241302380Y-91244176D01*
X241309606Y-91198552D01*
X241312013Y-91186929D01*
X241321528Y-91149868D01*
X241323500Y-91142188D01*
X241323500Y-91120741D01*
X241325051Y-91101031D01*
X241327166Y-91087677D01*
X241328406Y-91079848D01*
X241324059Y-91033859D01*
X241323500Y-91022004D01*
X241323500Y-87793225D01*
X241343502Y-87725104D01*
X241397158Y-87678611D01*
X241467432Y-87668507D01*
X241532012Y-87698001D01*
X241543133Y-87708912D01*
X241661509Y-87840382D01*
X241666851Y-87844263D01*
X241666853Y-87844265D01*
X241802165Y-87942575D01*
X241807507Y-87946456D01*
X241813535Y-87949140D01*
X241813537Y-87949141D01*
X241966339Y-88017173D01*
X241972370Y-88019858D01*
X242060630Y-88038618D01*
X242142433Y-88056006D01*
X242142437Y-88056006D01*
X242148890Y-88057378D01*
X242329354Y-88057378D01*
X242335807Y-88056006D01*
X242335811Y-88056006D01*
X242417614Y-88038618D01*
X242505874Y-88019858D01*
X242511905Y-88017173D01*
X242664707Y-87949141D01*
X242664709Y-87949140D01*
X242670737Y-87946456D01*
X242676079Y-87942575D01*
X242811391Y-87844265D01*
X242811393Y-87844263D01*
X242816735Y-87840382D01*
X242937489Y-87706271D01*
X243027721Y-87549985D01*
X243050297Y-87480503D01*
X243081447Y-87384632D01*
X243081447Y-87384631D01*
X243083487Y-87378353D01*
X243102351Y-87198878D01*
X243083487Y-87019403D01*
X243027721Y-86847771D01*
X243009147Y-86815599D01*
X242962321Y-86734496D01*
X242937489Y-86691485D01*
X242816735Y-86557374D01*
X242670737Y-86451300D01*
X242664707Y-86448615D01*
X242658984Y-86445311D01*
X242660143Y-86443303D01*
X242614152Y-86404207D01*
X242593500Y-86335086D01*
X242593500Y-82538950D01*
X242613502Y-82470829D01*
X242667158Y-82424336D01*
X242737432Y-82414232D01*
X242802012Y-82443726D01*
X242808595Y-82449855D01*
X242953210Y-82594470D01*
X242987236Y-82656782D01*
X242989425Y-82670394D01*
X242993612Y-82710224D01*
X242995635Y-82729475D01*
X243051401Y-82901107D01*
X243141633Y-83057393D01*
X243262387Y-83191504D01*
X243408385Y-83297578D01*
X243414413Y-83300262D01*
X243414415Y-83300263D01*
X243567217Y-83368295D01*
X243573248Y-83370980D01*
X243661508Y-83389740D01*
X243743311Y-83407128D01*
X243743315Y-83407128D01*
X243749768Y-83408500D01*
X243817500Y-83408500D01*
X243885621Y-83428502D01*
X243932114Y-83482158D01*
X243943500Y-83534500D01*
X243943500Y-91484944D01*
X243942941Y-91496800D01*
X243941212Y-91504537D01*
X243941461Y-91512459D01*
X243943438Y-91575369D01*
X243943500Y-91579327D01*
X243943500Y-91608432D01*
X243944056Y-91612832D01*
X243944988Y-91624664D01*
X243946438Y-91670831D01*
X243948650Y-91678444D01*
X243948650Y-91678445D01*
X243952419Y-91691416D01*
X243956430Y-91710782D01*
X243959118Y-91732064D01*
X243962034Y-91739429D01*
X243962035Y-91739433D01*
X243976126Y-91775021D01*
X243979965Y-91786231D01*
X243992855Y-91830600D01*
X244003775Y-91849065D01*
X244012466Y-91866805D01*
X244020365Y-91886756D01*
X244028867Y-91898458D01*
X244047516Y-91924126D01*
X244054033Y-91934048D01*
X244073507Y-91966977D01*
X244073510Y-91966981D01*
X244077547Y-91973807D01*
X244092711Y-91988971D01*
X244105551Y-92004004D01*
X244118159Y-92021357D01*
X244144476Y-92043128D01*
X244153752Y-92050802D01*
X244162532Y-92058792D01*
X244477210Y-92373470D01*
X244511236Y-92435782D01*
X244513425Y-92449394D01*
X244519635Y-92508475D01*
X244521675Y-92514753D01*
X244521675Y-92514754D01*
X244524759Y-92524246D01*
X244575401Y-92680107D01*
X244665633Y-92836393D01*
X244786387Y-92970504D01*
X244791729Y-92974385D01*
X244791731Y-92974387D01*
X244911091Y-93061107D01*
X244932385Y-93076578D01*
X244938413Y-93079262D01*
X244938415Y-93079263D01*
X245091217Y-93147295D01*
X245097248Y-93149980D01*
X245185508Y-93168740D01*
X245267311Y-93186128D01*
X245267315Y-93186128D01*
X245273768Y-93187500D01*
X245454232Y-93187500D01*
X245460685Y-93186128D01*
X245460689Y-93186128D01*
X245542492Y-93168740D01*
X245630752Y-93149980D01*
X245636783Y-93147295D01*
X245789585Y-93079263D01*
X245789587Y-93079262D01*
X245795615Y-93076578D01*
X245816909Y-93061107D01*
X245936269Y-92974387D01*
X245936271Y-92974385D01*
X245941613Y-92970504D01*
X246062367Y-92836393D01*
X246152599Y-92680107D01*
X246203241Y-92524246D01*
X246206325Y-92514754D01*
X246206325Y-92514753D01*
X246208365Y-92508475D01*
X246227229Y-92329000D01*
X246216785Y-92229631D01*
X246209055Y-92156089D01*
X246209055Y-92156088D01*
X246208365Y-92149525D01*
X246206252Y-92143020D01*
X246154641Y-91984178D01*
X246152599Y-91977893D01*
X246147285Y-91968688D01*
X246110942Y-91905742D01*
X246062367Y-91821607D01*
X246043559Y-91800718D01*
X245946035Y-91692407D01*
X245946034Y-91692406D01*
X245941613Y-91687496D01*
X245929156Y-91678445D01*
X245800957Y-91585303D01*
X245800956Y-91585302D01*
X245795615Y-91581422D01*
X245789587Y-91578738D01*
X245789585Y-91578737D01*
X245636783Y-91510705D01*
X245636781Y-91510705D01*
X245630752Y-91508020D01*
X245503483Y-91480969D01*
X245468549Y-91473543D01*
X245405651Y-91439391D01*
X245297405Y-91331145D01*
X245263379Y-91268833D01*
X245260500Y-91242050D01*
X245260500Y-82438014D01*
X245280502Y-82369893D01*
X245334158Y-82323400D01*
X245404432Y-82313296D01*
X245469012Y-82342790D01*
X245480132Y-82353699D01*
X245548387Y-82429504D01*
X245553729Y-82433385D01*
X245553731Y-82433387D01*
X245651628Y-82504513D01*
X245657883Y-82509365D01*
X245677753Y-82525803D01*
X245686532Y-82533792D01*
X247126340Y-83973599D01*
X247134330Y-83982380D01*
X247134339Y-83982391D01*
X247138584Y-83989080D01*
X247144359Y-83994503D01*
X247190274Y-84037621D01*
X247193083Y-84040343D01*
X247213667Y-84060926D01*
X247216791Y-84063349D01*
X247216793Y-84063351D01*
X247217163Y-84063638D01*
X247226191Y-84071348D01*
X247259867Y-84102972D01*
X247266818Y-84106793D01*
X247266819Y-84106794D01*
X247278655Y-84113301D01*
X247295184Y-84124158D01*
X247305869Y-84132447D01*
X247305871Y-84132448D01*
X247312131Y-84137304D01*
X247354544Y-84155657D01*
X247365181Y-84160868D01*
X247405663Y-84183124D01*
X247413342Y-84185096D01*
X247413343Y-84185096D01*
X247426434Y-84188457D01*
X247445136Y-84194859D01*
X247464823Y-84203379D01*
X247472652Y-84204619D01*
X247510448Y-84210605D01*
X247522074Y-84213013D01*
X247559135Y-84222529D01*
X247559136Y-84222529D01*
X247566812Y-84224500D01*
X247588258Y-84224500D01*
X247607968Y-84226051D01*
X247629151Y-84229406D01*
X247675135Y-84225059D01*
X247686994Y-84224500D01*
X250435246Y-84224500D01*
X250503367Y-84244502D01*
X250549860Y-84298158D01*
X250559964Y-84368432D01*
X250553229Y-84394726D01*
X250520255Y-84482684D01*
X250513500Y-84544866D01*
X250513500Y-85381134D01*
X250520255Y-85443316D01*
X250523027Y-85450712D01*
X250523029Y-85450718D01*
X250561662Y-85553771D01*
X250566845Y-85624578D01*
X250561662Y-85642229D01*
X250523029Y-85745282D01*
X250523027Y-85745288D01*
X250520255Y-85752684D01*
X250513500Y-85814866D01*
X250513500Y-86618500D01*
X250493498Y-86686621D01*
X250439842Y-86733114D01*
X250387500Y-86744500D01*
X250384070Y-86744500D01*
X250365120Y-86743067D01*
X250350885Y-86740901D01*
X250350881Y-86740901D01*
X250343651Y-86739801D01*
X250336359Y-86740394D01*
X250336356Y-86740394D01*
X250290982Y-86744085D01*
X250280767Y-86744500D01*
X250272707Y-86744500D01*
X250259417Y-86746049D01*
X250244493Y-86747789D01*
X250240118Y-86748222D01*
X250174661Y-86753546D01*
X250174658Y-86753547D01*
X250167363Y-86754140D01*
X250160399Y-86756396D01*
X250154440Y-86757587D01*
X250148585Y-86758971D01*
X250141319Y-86759818D01*
X250072673Y-86784735D01*
X250068545Y-86786152D01*
X250006064Y-86806393D01*
X250006062Y-86806394D01*
X249999101Y-86808649D01*
X249992846Y-86812445D01*
X249987372Y-86814951D01*
X249981942Y-86817670D01*
X249975063Y-86820167D01*
X249968943Y-86824180D01*
X249968942Y-86824180D01*
X249914024Y-86860186D01*
X249910320Y-86862523D01*
X249847893Y-86900405D01*
X249839516Y-86907803D01*
X249839492Y-86907776D01*
X249836500Y-86910429D01*
X249833267Y-86913132D01*
X249827148Y-86917144D01*
X249822116Y-86922456D01*
X249773872Y-86973383D01*
X249771494Y-86975825D01*
X248949859Y-87797460D01*
X248906741Y-87823882D01*
X248907248Y-87825020D01*
X248748416Y-87895737D01*
X248748414Y-87895738D01*
X248742386Y-87898422D01*
X248737045Y-87902302D01*
X248737044Y-87902303D01*
X248601731Y-88000613D01*
X248601729Y-88000615D01*
X248596387Y-88004496D01*
X248591966Y-88009406D01*
X248591965Y-88009407D01*
X248486748Y-88126263D01*
X248475633Y-88138607D01*
X248385401Y-88294893D01*
X248329635Y-88466525D01*
X248328945Y-88473088D01*
X248328945Y-88473089D01*
X248314780Y-88607862D01*
X248310771Y-88646000D01*
X248329635Y-88825475D01*
X248385401Y-88997107D01*
X248398620Y-89020002D01*
X248415500Y-89083001D01*
X248415500Y-107120930D01*
X248414067Y-107139880D01*
X248410801Y-107161349D01*
X248411394Y-107168641D01*
X248411394Y-107168644D01*
X248415085Y-107214018D01*
X248415500Y-107224233D01*
X248415500Y-107232293D01*
X248415925Y-107235937D01*
X248418789Y-107260507D01*
X248419222Y-107264882D01*
X248425140Y-107337637D01*
X248427396Y-107344601D01*
X248428587Y-107350560D01*
X248429971Y-107356415D01*
X248430818Y-107363681D01*
X248455735Y-107432327D01*
X248457152Y-107436455D01*
X248479649Y-107505899D01*
X248483445Y-107512154D01*
X248485951Y-107517628D01*
X248488670Y-107523058D01*
X248491167Y-107529937D01*
X248495180Y-107536057D01*
X248495180Y-107536058D01*
X248531186Y-107590976D01*
X248533523Y-107594680D01*
X248571405Y-107657107D01*
X248575121Y-107661315D01*
X248575122Y-107661316D01*
X248578803Y-107665484D01*
X248578776Y-107665508D01*
X248581429Y-107668500D01*
X248584132Y-107671733D01*
X248588144Y-107677852D01*
X248593456Y-107682884D01*
X248644383Y-107731128D01*
X248646825Y-107733506D01*
X248839751Y-107926432D01*
X248870489Y-107976591D01*
X248893401Y-108047107D01*
X248983633Y-108203393D01*
X249104387Y-108337504D01*
X249250385Y-108443578D01*
X249256413Y-108446262D01*
X249256415Y-108446263D01*
X249409217Y-108514295D01*
X249415248Y-108516980D01*
X249503508Y-108535740D01*
X249585311Y-108553128D01*
X249585315Y-108553128D01*
X249591768Y-108554500D01*
X249772232Y-108554500D01*
X249778685Y-108553128D01*
X249778689Y-108553128D01*
X249860492Y-108535740D01*
X249948752Y-108516980D01*
X249954783Y-108514295D01*
X250107585Y-108446263D01*
X250107587Y-108446262D01*
X250113615Y-108443578D01*
X250259613Y-108337504D01*
X250314261Y-108276812D01*
X250374705Y-108239572D01*
X250445689Y-108240924D01*
X250504674Y-108280437D01*
X250525878Y-108316892D01*
X250568678Y-108431060D01*
X250579642Y-108451085D01*
X250594812Y-108520442D01*
X250587105Y-108555826D01*
X250568521Y-108605398D01*
X250564895Y-108620649D01*
X250559369Y-108671514D01*
X250559000Y-108678328D01*
X250559000Y-108820885D01*
X250563475Y-108836124D01*
X250564865Y-108837329D01*
X250572548Y-108839000D01*
X251994885Y-108839000D01*
X252010124Y-108834525D01*
X252011329Y-108833135D01*
X252013000Y-108825452D01*
X252013000Y-108759115D01*
X252007421Y-108740115D01*
X251973104Y-108686716D01*
X251968000Y-108651218D01*
X251968000Y-107695000D01*
X251988002Y-107626879D01*
X252041658Y-107580386D01*
X252094000Y-107569000D01*
X252350000Y-107569000D01*
X252418121Y-107589002D01*
X252464614Y-107642658D01*
X252476000Y-107695000D01*
X252476000Y-108156885D01*
X252481579Y-108175885D01*
X252515896Y-108229284D01*
X252521000Y-108264782D01*
X252521000Y-109952884D01*
X252525475Y-109968123D01*
X252526865Y-109969328D01*
X252534548Y-109970999D01*
X253238500Y-109970999D01*
X253306621Y-109991001D01*
X253353114Y-110044657D01*
X253364500Y-110096999D01*
X253364500Y-112903500D01*
X253344498Y-112971621D01*
X253290842Y-113018114D01*
X253238500Y-113029500D01*
X252543232Y-113029500D01*
X252475111Y-113009498D01*
X252428618Y-112955842D01*
X252418514Y-112885568D01*
X252448066Y-112820922D01*
X252479552Y-112784637D01*
X252482552Y-112779451D01*
X252482555Y-112779447D01*
X252582467Y-112606742D01*
X252585473Y-112601546D01*
X252654861Y-112401729D01*
X252685213Y-112192396D01*
X252675433Y-111981101D01*
X252625875Y-111775466D01*
X252582525Y-111680122D01*
X252540806Y-111588368D01*
X252538326Y-111582913D01*
X252415946Y-111410389D01*
X252263150Y-111264119D01*
X252085452Y-111149380D01*
X252025354Y-111125160D01*
X251894832Y-111072558D01*
X251894829Y-111072557D01*
X251889263Y-111070314D01*
X251681663Y-111029772D01*
X251676101Y-111029500D01*
X251520154Y-111029500D01*
X251362434Y-111044548D01*
X251159466Y-111104092D01*
X251154139Y-111106836D01*
X251154138Y-111106836D01*
X250976751Y-111198196D01*
X250976748Y-111198198D01*
X250971420Y-111200942D01*
X250805080Y-111331604D01*
X250801148Y-111336135D01*
X250801145Y-111336138D01*
X250732474Y-111415275D01*
X250666448Y-111491363D01*
X250663448Y-111496549D01*
X250663445Y-111496553D01*
X250616312Y-111578026D01*
X250560527Y-111674454D01*
X250491139Y-111874271D01*
X250460787Y-112083604D01*
X250470567Y-112294899D01*
X250520125Y-112500534D01*
X250522607Y-112505992D01*
X250522608Y-112505996D01*
X250566053Y-112601546D01*
X250607674Y-112693087D01*
X250664216Y-112772796D01*
X250705219Y-112830600D01*
X250728317Y-112897734D01*
X250711453Y-112966699D01*
X250659981Y-113015598D01*
X250602449Y-113029500D01*
X166163473Y-113029500D01*
X166144831Y-113028113D01*
X166119217Y-113024281D01*
X166110320Y-113025498D01*
X166101346Y-113025442D01*
X166101350Y-113024790D01*
X166079882Y-113024699D01*
X166038692Y-113018713D01*
X166002595Y-113007761D01*
X165980362Y-112997163D01*
X165952060Y-112983671D01*
X165920821Y-112962523D01*
X165879681Y-112924550D01*
X165856103Y-112895102D01*
X165828051Y-112846658D01*
X165814247Y-112811549D01*
X165805404Y-112772796D01*
X165802545Y-112752954D01*
X165803247Y-112744240D01*
X165801428Y-112735453D01*
X165801413Y-112735207D01*
X165798832Y-112710331D01*
X165798774Y-112687632D01*
X165790578Y-109507669D01*
X250559001Y-109507669D01*
X250559371Y-109514490D01*
X250564895Y-109565352D01*
X250568521Y-109580604D01*
X250613676Y-109701054D01*
X250622214Y-109716649D01*
X250698715Y-109818724D01*
X250711276Y-109831285D01*
X250813351Y-109907786D01*
X250828946Y-109916324D01*
X250949394Y-109961478D01*
X250964649Y-109965105D01*
X251015514Y-109970631D01*
X251022328Y-109971000D01*
X251994885Y-109971000D01*
X252010124Y-109966525D01*
X252011329Y-109965135D01*
X252013000Y-109957452D01*
X252013000Y-109365115D01*
X252008525Y-109349876D01*
X252007135Y-109348671D01*
X251999452Y-109347000D01*
X250577116Y-109347000D01*
X250561877Y-109351475D01*
X250560672Y-109352865D01*
X250559001Y-109360548D01*
X250559001Y-109507669D01*
X165790578Y-109507669D01*
X165747940Y-92964000D01*
X217957771Y-92964000D01*
X217958461Y-92970565D01*
X217973123Y-93110057D01*
X217976635Y-93143475D01*
X217978675Y-93149753D01*
X217978675Y-93149754D01*
X217990494Y-93186128D01*
X218032401Y-93315107D01*
X218035704Y-93320829D01*
X218035705Y-93320830D01*
X218057986Y-93359422D01*
X218122633Y-93471393D01*
X218243387Y-93605504D01*
X218389385Y-93711578D01*
X218395413Y-93714262D01*
X218395415Y-93714263D01*
X218548217Y-93782295D01*
X218554248Y-93784980D01*
X218642508Y-93803740D01*
X218724311Y-93821128D01*
X218724315Y-93821128D01*
X218730768Y-93822500D01*
X218911232Y-93822500D01*
X218917685Y-93821128D01*
X218917689Y-93821128D01*
X218999492Y-93803740D01*
X219087752Y-93784980D01*
X219093783Y-93782295D01*
X219246585Y-93714263D01*
X219246587Y-93714262D01*
X219252615Y-93711578D01*
X219398613Y-93605504D01*
X219519367Y-93471393D01*
X219584014Y-93359422D01*
X219606295Y-93320830D01*
X219606296Y-93320829D01*
X219609599Y-93315107D01*
X219651506Y-93186128D01*
X219663325Y-93149754D01*
X219663325Y-93149753D01*
X219665365Y-93143475D01*
X219671575Y-93084394D01*
X219698589Y-93018738D01*
X219707789Y-93008471D01*
X220307104Y-92409155D01*
X220315885Y-92401165D01*
X220315887Y-92401164D01*
X220322580Y-92396916D01*
X220371120Y-92345226D01*
X220373874Y-92342385D01*
X220394426Y-92321833D01*
X220397138Y-92318337D01*
X220404849Y-92309308D01*
X220431044Y-92281413D01*
X220436472Y-92275633D01*
X220446801Y-92256845D01*
X220457658Y-92240316D01*
X220465947Y-92229631D01*
X220465948Y-92229629D01*
X220470804Y-92223369D01*
X220489157Y-92180956D01*
X220494368Y-92170319D01*
X220516624Y-92129837D01*
X220521579Y-92110540D01*
X220521957Y-92109066D01*
X220528359Y-92090364D01*
X220536879Y-92070677D01*
X220539428Y-92054586D01*
X220544105Y-92025052D01*
X220546513Y-92013426D01*
X220556029Y-91976365D01*
X220556029Y-91976364D01*
X220558000Y-91968688D01*
X220558000Y-91947242D01*
X220559551Y-91927531D01*
X220561666Y-91914178D01*
X220562906Y-91906349D01*
X220558559Y-91860364D01*
X220558000Y-91848506D01*
X220558000Y-90436786D01*
X220578002Y-90368665D01*
X220590358Y-90352483D01*
X220597867Y-90344143D01*
X220688099Y-90187857D01*
X220743865Y-90016225D01*
X220762729Y-89836750D01*
X220743865Y-89657275D01*
X220688099Y-89485643D01*
X220684094Y-89478705D01*
X220601168Y-89335075D01*
X220597867Y-89329357D01*
X220529400Y-89253316D01*
X220481535Y-89200157D01*
X220481534Y-89200156D01*
X220477113Y-89195246D01*
X220471454Y-89191134D01*
X220336457Y-89093053D01*
X220336456Y-89093052D01*
X220331115Y-89089172D01*
X220325087Y-89086488D01*
X220325085Y-89086487D01*
X220172283Y-89018455D01*
X220172281Y-89018455D01*
X220166252Y-89015770D01*
X220077992Y-88997010D01*
X219996189Y-88979622D01*
X219996185Y-88979622D01*
X219989732Y-88978250D01*
X219809268Y-88978250D01*
X219802815Y-88979622D01*
X219802811Y-88979622D01*
X219721008Y-88997010D01*
X219632748Y-89015770D01*
X219626719Y-89018454D01*
X219626717Y-89018455D01*
X219473916Y-89086487D01*
X219473914Y-89086488D01*
X219467886Y-89089172D01*
X219462545Y-89093052D01*
X219462544Y-89093053D01*
X219327231Y-89191363D01*
X219327229Y-89191365D01*
X219321887Y-89195246D01*
X219317466Y-89200156D01*
X219317465Y-89200157D01*
X219269601Y-89253316D01*
X219201133Y-89329357D01*
X219197832Y-89335075D01*
X219114907Y-89478705D01*
X219110901Y-89485643D01*
X219055135Y-89657275D01*
X219036271Y-89836750D01*
X219055135Y-90016225D01*
X219110901Y-90187857D01*
X219201133Y-90344143D01*
X219208638Y-90352478D01*
X219239354Y-90416484D01*
X219241000Y-90436786D01*
X219241000Y-91560550D01*
X219220998Y-91628671D01*
X219204095Y-91649646D01*
X218986923Y-91866817D01*
X218779348Y-92074392D01*
X218716450Y-92108543D01*
X218652402Y-92122157D01*
X218554248Y-92143020D01*
X218548219Y-92145704D01*
X218548217Y-92145705D01*
X218395416Y-92213737D01*
X218395414Y-92213738D01*
X218389386Y-92216422D01*
X218384045Y-92220302D01*
X218384044Y-92220303D01*
X218248731Y-92318613D01*
X218248729Y-92318615D01*
X218243387Y-92322496D01*
X218238966Y-92327406D01*
X218238965Y-92327407D01*
X218129128Y-92449394D01*
X218122633Y-92456607D01*
X218032401Y-92612893D01*
X217976635Y-92784525D01*
X217957771Y-92964000D01*
X165747940Y-92964000D01*
X165731376Y-86537253D01*
X216611024Y-86537253D01*
X216611714Y-86543818D01*
X216626724Y-86686621D01*
X216629888Y-86716728D01*
X216631928Y-86723006D01*
X216631928Y-86723007D01*
X216639050Y-86744925D01*
X216685654Y-86888360D01*
X216688957Y-86894082D01*
X216688958Y-86894083D01*
X216698945Y-86911381D01*
X216775886Y-87044646D01*
X216896640Y-87178757D01*
X216901982Y-87182638D01*
X216901984Y-87182640D01*
X217016034Y-87265502D01*
X217042638Y-87284831D01*
X217048666Y-87287515D01*
X217048668Y-87287516D01*
X217201470Y-87355548D01*
X217207501Y-87358233D01*
X217271278Y-87371789D01*
X217377564Y-87394381D01*
X217377568Y-87394381D01*
X217384021Y-87395753D01*
X217564485Y-87395753D01*
X217570938Y-87394381D01*
X217570942Y-87394381D01*
X217677228Y-87371789D01*
X217741005Y-87358233D01*
X217747036Y-87355548D01*
X217899838Y-87287516D01*
X217899840Y-87287515D01*
X217905868Y-87284831D01*
X217926881Y-87269564D01*
X217993748Y-87245706D01*
X218000942Y-87245500D01*
X224169629Y-87245500D01*
X224237750Y-87265502D01*
X224258724Y-87282405D01*
X224582751Y-87606432D01*
X224613489Y-87656591D01*
X224636401Y-87727107D01*
X224726633Y-87883393D01*
X224731051Y-87888300D01*
X224731052Y-87888301D01*
X224840096Y-88009407D01*
X224847387Y-88017504D01*
X224852729Y-88021385D01*
X224852731Y-88021387D01*
X224988043Y-88119697D01*
X224993385Y-88123578D01*
X224999413Y-88126262D01*
X224999415Y-88126263D01*
X225039983Y-88144325D01*
X225158248Y-88196980D01*
X225246508Y-88215740D01*
X225328311Y-88233128D01*
X225328315Y-88233128D01*
X225334768Y-88234500D01*
X225515232Y-88234500D01*
X225521685Y-88233128D01*
X225521689Y-88233128D01*
X225603492Y-88215740D01*
X225691752Y-88196980D01*
X225810017Y-88144325D01*
X225850585Y-88126263D01*
X225850587Y-88126262D01*
X225856615Y-88123578D01*
X225861957Y-88119697D01*
X225997269Y-88021387D01*
X225997271Y-88021385D01*
X226002613Y-88017504D01*
X226009904Y-88009407D01*
X226118948Y-87888301D01*
X226118949Y-87888300D01*
X226123367Y-87883393D01*
X226213599Y-87727107D01*
X226269365Y-87555475D01*
X226288229Y-87376000D01*
X226269365Y-87196525D01*
X226213599Y-87024893D01*
X226123367Y-86868607D01*
X226079752Y-86820167D01*
X226007035Y-86739407D01*
X226007034Y-86739406D01*
X226002613Y-86734496D01*
X225973462Y-86713316D01*
X225861957Y-86632303D01*
X225861956Y-86632302D01*
X225856615Y-86628422D01*
X225850587Y-86625738D01*
X225850585Y-86625737D01*
X225691752Y-86555020D01*
X225692259Y-86553882D01*
X225649141Y-86527460D01*
X225119770Y-85998089D01*
X225107384Y-85983677D01*
X225098851Y-85972082D01*
X225098846Y-85972077D01*
X225094508Y-85966182D01*
X225088930Y-85961443D01*
X225088927Y-85961440D01*
X225054232Y-85931965D01*
X225046716Y-85925035D01*
X225041021Y-85919340D01*
X225034880Y-85914482D01*
X225018749Y-85901719D01*
X225015345Y-85898928D01*
X224965297Y-85856409D01*
X224965295Y-85856408D01*
X224959715Y-85851667D01*
X224953199Y-85848339D01*
X224948150Y-85844972D01*
X224943021Y-85841805D01*
X224937284Y-85837266D01*
X224871125Y-85806345D01*
X224867225Y-85804439D01*
X224845912Y-85793556D01*
X224802192Y-85771231D01*
X224795084Y-85769492D01*
X224789441Y-85767393D01*
X224783678Y-85765476D01*
X224777050Y-85762378D01*
X224768214Y-85760540D01*
X224705588Y-85747514D01*
X224701299Y-85746543D01*
X224696146Y-85745282D01*
X224630390Y-85729192D01*
X224624788Y-85728844D01*
X224624785Y-85728844D01*
X224619236Y-85728500D01*
X224619238Y-85728464D01*
X224615245Y-85728225D01*
X224611053Y-85727851D01*
X224603885Y-85726360D01*
X224537675Y-85728151D01*
X224526479Y-85728454D01*
X224523072Y-85728500D01*
X217795250Y-85728500D01*
X217753746Y-85719677D01*
X217753317Y-85720999D01*
X217747037Y-85718959D01*
X217741005Y-85716273D01*
X217652745Y-85697513D01*
X217570942Y-85680125D01*
X217570938Y-85680125D01*
X217564485Y-85678753D01*
X217384021Y-85678753D01*
X217377568Y-85680125D01*
X217377564Y-85680125D01*
X217295761Y-85697513D01*
X217207501Y-85716273D01*
X217201472Y-85718957D01*
X217201470Y-85718958D01*
X217048669Y-85786990D01*
X217048667Y-85786991D01*
X217042639Y-85789675D01*
X217037298Y-85793555D01*
X217037297Y-85793556D01*
X216901984Y-85891866D01*
X216901982Y-85891868D01*
X216896640Y-85895749D01*
X216892219Y-85900659D01*
X216892218Y-85900660D01*
X216827910Y-85972082D01*
X216775886Y-86029860D01*
X216685654Y-86186146D01*
X216629888Y-86357778D01*
X216611024Y-86537253D01*
X165731376Y-86537253D01*
X165681359Y-67130525D01*
X165672180Y-63569183D01*
X165673531Y-63556699D01*
X165673127Y-63556668D01*
X165673808Y-63547717D01*
X165675750Y-63538955D01*
X165675155Y-63530000D01*
X165675836Y-63521048D01*
X165676535Y-63521101D01*
X165678141Y-63499685D01*
X165686695Y-63460702D01*
X165700460Y-63425040D01*
X165727334Y-63378177D01*
X165751168Y-63348280D01*
X165790858Y-63311641D01*
X165822565Y-63290268D01*
X165870803Y-63267512D01*
X165871415Y-63267223D01*
X165908072Y-63256346D01*
X165946051Y-63251144D01*
X165965976Y-63250071D01*
X165974394Y-63251522D01*
X166011198Y-63247315D01*
X166025508Y-63246500D01*
X250602768Y-63246500D01*
X250670889Y-63266502D01*
G37*
%TD.AperFunction*%
%TD*%
M02*
