%TF.GenerationSoftware,KiCad,Pcbnew,(6.0.4-0)*%
%TF.CreationDate,2023-12-10T22:35:43+01:00*%
%TF.ProjectId,pcmcia-sram,70636d63-6961-42d7-9372-616d2e6b6963,rev?*%
%TF.SameCoordinates,Original*%
%TF.FileFunction,Paste,Top*%
%TF.FilePolarity,Positive*%
%FSLAX46Y46*%
G04 Gerber Fmt 4.6, Leading zero omitted, Abs format (unit mm)*
G04 Created by KiCad (PCBNEW (6.0.4-0)) date 2023-12-10 22:35:43*
%MOMM*%
%LPD*%
G01*
G04 APERTURE LIST*
G04 Aperture macros list*
%AMRoundRect*
0 Rectangle with rounded corners*
0 $1 Rounding radius*
0 $2 $3 $4 $5 $6 $7 $8 $9 X,Y pos of 4 corners*
0 Add a 4 corners polygon primitive as box body*
4,1,4,$2,$3,$4,$5,$6,$7,$8,$9,$2,$3,0*
0 Add four circle primitives for the rounded corners*
1,1,$1+$1,$2,$3*
1,1,$1+$1,$4,$5*
1,1,$1+$1,$6,$7*
1,1,$1+$1,$8,$9*
0 Add four rect primitives between the rounded corners*
20,1,$1+$1,$2,$3,$4,$5,0*
20,1,$1+$1,$4,$5,$6,$7,0*
20,1,$1+$1,$6,$7,$8,$9,0*
20,1,$1+$1,$8,$9,$2,$3,0*%
G04 Aperture macros list end*
%ADD10RoundRect,0.250000X0.350000X0.450000X-0.350000X0.450000X-0.350000X-0.450000X0.350000X-0.450000X0*%
%ADD11R,5.100000X2.500000*%
%ADD12RoundRect,0.137500X0.625000X0.137500X-0.625000X0.137500X-0.625000X-0.137500X0.625000X-0.137500X0*%
%ADD13RoundRect,0.250000X0.650000X-0.412500X0.650000X0.412500X-0.650000X0.412500X-0.650000X-0.412500X0*%
%ADD14RoundRect,0.250000X-0.650000X0.412500X-0.650000X-0.412500X0.650000X-0.412500X0.650000X0.412500X0*%
%ADD15RoundRect,0.150000X0.587500X0.150000X-0.587500X0.150000X-0.587500X-0.150000X0.587500X-0.150000X0*%
%ADD16R,2.400000X0.740000*%
%ADD17RoundRect,0.250000X0.475000X-0.337500X0.475000X0.337500X-0.475000X0.337500X-0.475000X-0.337500X0*%
%ADD18RoundRect,0.250000X-0.475000X0.337500X-0.475000X-0.337500X0.475000X-0.337500X0.475000X0.337500X0*%
G04 APERTURE END LIST*
D10*
%TO.C,R1*%
X212963000Y-92183000D03*
X210963000Y-92183000D03*
%TD*%
D11*
%TO.C,CR2032*%
X174879000Y-99715000D03*
X174879000Y-76815000D03*
%TD*%
D12*
%TO.C,U1*%
X227329500Y-95395000D03*
X227329500Y-94595000D03*
X227329500Y-93795000D03*
X227329500Y-92995000D03*
X227329500Y-92195000D03*
X227329500Y-91395000D03*
X227329500Y-90595000D03*
X227329500Y-89795000D03*
X227329500Y-88995000D03*
X227329500Y-88195000D03*
X227329500Y-87395000D03*
X227329500Y-86595000D03*
X227329500Y-85795000D03*
X227329500Y-84995000D03*
X227329500Y-84195000D03*
X227329500Y-83395000D03*
X227329500Y-82595000D03*
X227329500Y-81795000D03*
X227329500Y-80995000D03*
X227329500Y-80195000D03*
X227329500Y-79395000D03*
X227329500Y-78595000D03*
X216154500Y-78595000D03*
X216154500Y-79395000D03*
X216154500Y-80195000D03*
X216154500Y-80995000D03*
X216154500Y-81795000D03*
X216154500Y-82595000D03*
X216154500Y-83395000D03*
X216154500Y-84195000D03*
X216154500Y-84995000D03*
X216154500Y-85795000D03*
X216154500Y-86595000D03*
X216154500Y-87395000D03*
X216154500Y-88195000D03*
X216154500Y-88995000D03*
X216154500Y-89795000D03*
X216154500Y-90595000D03*
X216154500Y-91395000D03*
X216154500Y-92195000D03*
X216154500Y-92995000D03*
X216154500Y-93795000D03*
X216154500Y-94595000D03*
X216154500Y-95395000D03*
%TD*%
D13*
%TO.C,C4*%
X234489000Y-88538500D03*
X234489000Y-85413500D03*
%TD*%
D14*
%TO.C,C2*%
X209851000Y-85286500D03*
X209851000Y-88411500D03*
%TD*%
D15*
%TO.C,D1*%
X205232000Y-88260000D03*
X205232000Y-86360000D03*
X203357000Y-87310000D03*
%TD*%
D16*
%TO.C,J1*%
X252222000Y-67183000D03*
X252222000Y-68453000D03*
X252222000Y-69723000D03*
X252222000Y-70993000D03*
X252222000Y-72263000D03*
X252222000Y-73533000D03*
X252222000Y-74803000D03*
X252222000Y-76073000D03*
X252222000Y-77343000D03*
X252222000Y-78613000D03*
X252222000Y-79883000D03*
X252222000Y-81153000D03*
X252222000Y-82423000D03*
X252222000Y-83693000D03*
X252222000Y-84963000D03*
X252222000Y-86233000D03*
X252222000Y-87503000D03*
X252222000Y-88773000D03*
X252222000Y-90043000D03*
X252222000Y-91313000D03*
X252222000Y-92583000D03*
X252222000Y-93853000D03*
X252222000Y-95123000D03*
X252222000Y-96393000D03*
X252222000Y-97663000D03*
X252222000Y-98933000D03*
X252222000Y-100203000D03*
X252222000Y-101473000D03*
X252222000Y-102743000D03*
X252222000Y-104013000D03*
X252222000Y-105283000D03*
X252222000Y-106553000D03*
X252222000Y-107823000D03*
X252267000Y-109093000D03*
%TD*%
D17*
%TO.C,C3*%
X230933000Y-88013500D03*
X230933000Y-85938500D03*
%TD*%
D18*
%TO.C,C1*%
X213280000Y-85938500D03*
X213280000Y-88013500D03*
%TD*%
M02*
